<?xml version="1.0" encoding="UTF-8" standalone="no"?>
<svg
   xmlns:dc="http://purl.org/dc/elements/1.1/"
   xmlns:cc="http://creativecommons.org/ns#"
   xmlns:rdf="http://www.w3.org/1999/02/22-rdf-syntax-ns#"
   xmlns:svg="http://www.w3.org/2000/svg"
   xmlns="http://www.w3.org/2000/svg"
   xmlns:sodipodi="http://sodipodi.sourceforge.net/DTD/sodipodi-0.dtd"
   xmlns:inkscape="http://www.inkscape.org/namespaces/inkscape"
   version="1.1"
   id="svg2"
   xml:space="preserve"
   width="1173.2267"
   height="995.32001"
   viewBox="0 0 1173.2267 995.32001"
   sodipodi:docname="reshot-illustration-development-team-B9HDTVXC3W.eps"><metadata
     id="metadata8"><rdf:RDF><cc:Work
         rdf:about=""><dc:format>image/svg+xml</dc:format><dc:type
           rdf:resource="http://purl.org/dc/dcmitype/StillImage" /></cc:Work></rdf:RDF></metadata><defs
     id="defs6" /><sodipodi:namedview
     pagecolor="#ffffff"
     bordercolor="#666666"
     borderopacity="1"
     objecttolerance="10"
     gridtolerance="10"
     guidetolerance="10"
     inkscape:pageopacity="0"
     inkscape:pageshadow="2"
     inkscape:window-width="640"
     inkscape:window-height="480"
     id="namedview4" /><g
     id="g10"
     inkscape:groupmode="layer"
     inkscape:label="ink_ext_XXXXXX"
     transform="matrix(1.3333333,0,0,-1.3333333,0,995.32)"><g
       id="g12"
       transform="scale(0.1)"><path
         d="M 8734.19,65 H 65"
         style="fill:none;stroke:#e1e7f4;stroke-width:130;stroke-linecap:round;stroke-linejoin:miter;stroke-miterlimit:10;stroke-dasharray:none;stroke-opacity:1"
         id="path14" /><path
         d="m 1639.92,3311.28 h 4163.32 c 35.5,0 64.28,28.78 64.28,64.28 V 7254.03 H 1575.63 V 3375.57 c 0,-35.51 28.78,-64.29 64.29,-64.29"
         style="fill:#f8faff;fill-opacity:1;fill-rule:nonzero;stroke:none"
         id="path16" /><path
         d="m 1639.92,3311.28 h 4163.32 c 35.5,0 64.28,28.78 64.28,64.28 V 7254.03 H 1575.63 V 3375.57 c 0,-35.51 28.78,-64.29 64.29,-64.29 z"
         style="fill:none;stroke:#a8b7e2;stroke-width:30;stroke-linecap:butt;stroke-linejoin:miter;stroke-miterlimit:10;stroke-dasharray:none;stroke-opacity:1"
         id="path18" /><path
         d="m 1639.92,7449.89 h 4163.32 c 35.5,0 64.28,-28.78 64.28,-64.28 V 7254.03 H 1575.63 v 131.58 c 0,35.5 28.78,64.28 64.29,64.28"
         style="fill:#f8faff;fill-opacity:1;fill-rule:nonzero;stroke:none"
         id="path20" /><path
         d="m 1639.92,7449.89 h 4163.32 c 35.5,0 64.28,-28.78 64.28,-64.28 V 7254.03 H 1575.63 v 131.58 c 0,35.5 28.78,64.28 64.29,64.28 z"
         style="fill:none;stroke:#a8b7e2;stroke-width:30;stroke-linecap:butt;stroke-linejoin:miter;stroke-miterlimit:10;stroke-dasharray:none;stroke-opacity:1"
         id="path22" /><path
         d="m 2058.9,7352.81 c 0,-27.51 22.3,-49.81 49.81,-49.81 27.52,0 49.82,22.3 49.82,49.81 0,27.51 -22.3,49.82 -49.82,49.82 -27.51,0 -49.81,-22.31 -49.81,-49.82"
         style="fill:#9ef482;fill-opacity:1;fill-rule:nonzero;stroke:none"
         id="path24" /><path
         d="m 1898.8,7352.81 c 0,-27.51 22.3,-49.81 49.82,-49.81 27.51,0 49.82,22.3 49.82,49.81 0,27.51 -22.31,49.82 -49.82,49.82 -27.52,0 -49.82,-22.31 -49.82,-49.82"
         style="fill:#ffc95e;fill-opacity:1;fill-rule:nonzero;stroke:none"
         id="path26" /><path
         d="m 1738.71,7352.81 c 0,-27.51 22.3,-49.81 49.81,-49.81 27.51,0 49.82,22.3 49.82,49.81 0,27.51 -22.31,49.82 -49.82,49.82 -27.51,0 -49.81,-22.31 -49.81,-49.82"
         style="fill:#d44945;fill-opacity:1;fill-rule:nonzero;stroke:none"
         id="path28" /><path
         d="M 3499.38,5127.13 H 1117.87 v 1596.95 h 2381.51 z"
         style="fill:none;stroke:#d44945;stroke-width:7.5;stroke-linecap:butt;stroke-linejoin:miter;stroke-miterlimit:10;stroke-dasharray:none;stroke-opacity:1"
         id="path30" /><path
         d="M 1117.87,6724.08 3499.38,5127.13"
         style="fill:none;stroke:#d44945;stroke-width:7.5;stroke-linecap:butt;stroke-linejoin:miter;stroke-miterlimit:10;stroke-dasharray:none;stroke-opacity:1"
         id="path32" /><path
         d="M 3499.38,6724.08 1117.87,5127.13"
         style="fill:none;stroke:#d44945;stroke-width:7.5;stroke-linecap:butt;stroke-linejoin:miter;stroke-miterlimit:10;stroke-dasharray:none;stroke-opacity:1"
         id="path34" /><path
         d="M 1387.14,5694.38 H 971.375 c -23.73,0 -43.152,19.43 -43.152,43.17 v 0 c 0,23.73 19.422,43.16 43.152,43.16 h 415.765 c 23.74,0 43.15,-19.43 43.15,-43.16 v 0 c 0,-23.74 -19.41,-43.17 -43.15,-43.17"
         style="fill:#687ccd;fill-opacity:1;fill-rule:nonzero;stroke:none"
         id="path36" /><path
         d="M 1587.97,5534.07 H 971.375 c -23.73,0 -43.152,19.42 -43.152,43.16 v 0 c 0,23.74 19.422,43.16 43.152,43.16 h 616.595 c 23.74,0 43.15,-19.42 43.15,-43.16 v 0 c 0,-23.74 -19.41,-43.16 -43.15,-43.16"
         style="fill:#687ccd;fill-opacity:1;fill-rule:nonzero;stroke:none"
         id="path38" /><path
         d="M 1592.98,5373.76 H 966.367 c -20.976,0 -38.144,17.17 -38.144,38.15 v 10.03 c 0,20.97 17.168,38.14 38.144,38.14 h 626.613 c 20.98,0 38.14,-17.17 38.14,-38.14 v -10.03 c 0,-20.98 -17.16,-38.15 -38.14,-38.15"
         style="fill:#687ccd;fill-opacity:1;fill-rule:nonzero;stroke:none"
         id="path40" /><path
         d="M 2755.53,3427.41 H 603.484 c -22.089,0 -40,17.91 -40,40 V 4782.16 H 2795.53 V 3467.41 c 0,-22.09 -17.91,-40 -40,-40"
         style="fill:#687ccd;fill-opacity:1;fill-rule:nonzero;stroke:none"
         id="path42" /><path
         d="m 862.547,3427.41 h -9.598 v 1354.75 h 9.598 V 3427.41"
         style="fill:#4541fc;fill-opacity:1;fill-rule:nonzero;stroke:none"
         id="path44" /><path
         d="M 2755.53,4973.99 H 603.484 c -22.089,0 -40,-17.91 -40,-40 V 4782.16 H 2795.53 v 151.83 c 0,22.09 -17.91,40 -40,40"
         style="fill:#4541fc;fill-opacity:1;fill-rule:nonzero;stroke:none"
         id="path46" /><path
         d="m 740.203,4554.68 h -57.547 c -15.898,0 -28.781,12.88 -28.781,28.78 v 0 c 0,15.88 12.883,28.77 28.781,28.77 h 57.547 c 15.891,0 28.77,-12.89 28.77,-28.77 v 0 c 0,-15.9 -12.879,-28.78 -28.77,-28.78"
         style="fill:#b3c0e2;fill-opacity:1;fill-rule:nonzero;stroke:none"
         id="path48" /><path
         d="m 740.203,4458.77 h -57.547 c -15.898,0 -28.781,12.88 -28.781,28.77 v 0 c 0,15.89 12.883,28.78 28.781,28.78 h 57.547 c 15.891,0 28.77,-12.89 28.77,-28.78 v 0 c 0,-15.89 -12.879,-28.77 -28.77,-28.77"
         style="fill:#b3c0e2;fill-opacity:1;fill-rule:nonzero;stroke:none"
         id="path50" /><path
         d="m 740.203,4362.85 h -57.547 c -15.898,0 -28.781,12.89 -28.781,28.78 v 0 c 0,15.89 12.883,28.77 28.781,28.77 h 57.547 c 15.891,0 28.77,-12.88 28.77,-28.77 v 0 c 0,-15.89 -12.879,-28.78 -28.77,-28.78"
         style="fill:#b3c0e2;fill-opacity:1;fill-rule:nonzero;stroke:none"
         id="path52" /><path
         d="m 740.203,4266.94 h -57.547 c -15.898,0 -28.781,12.88 -28.781,28.78 v 0 c 0,15.88 12.883,28.77 28.781,28.77 h 57.547 c 15.891,0 28.77,-12.89 28.77,-28.77 v 0 c 0,-15.9 -12.879,-28.78 -28.77,-28.78"
         style="fill:#b3c0e2;fill-opacity:1;fill-rule:nonzero;stroke:none"
         id="path54" /><path
         d="m 740.203,4171.03 h -57.547 c -15.898,0 -28.781,12.88 -28.781,28.77 v 0 c 0,15.89 12.883,28.78 28.781,28.78 h 57.547 c 15.891,0 28.77,-12.89 28.77,-28.78 v 0 c 0,-15.89 -12.879,-28.77 -28.77,-28.77"
         style="fill:#b3c0e2;fill-opacity:1;fill-rule:nonzero;stroke:none"
         id="path56" /><path
         d="m 740.203,4075.12 h -57.547 c -15.898,0 -28.781,12.88 -28.781,28.77 v 0 c 0,15.89 12.883,28.77 28.781,28.77 h 57.547 c 15.891,0 28.77,-12.88 28.77,-28.77 v 0 c 0,-15.89 -12.879,-28.77 -28.77,-28.77"
         style="fill:#b3c0e2;fill-opacity:1;fill-rule:nonzero;stroke:none"
         id="path58" /><path
         d="m 740.203,3979.2 h -57.547 c -15.898,0 -28.781,12.88 -28.781,28.78 v 0 c 0,15.89 12.883,28.77 28.781,28.77 h 57.547 c 15.891,0 28.77,-12.88 28.77,-28.77 v 0 c 0,-15.9 -12.879,-28.78 -28.77,-28.78"
         style="fill:#b3c0e2;fill-opacity:1;fill-rule:nonzero;stroke:none"
         id="path60" /><path
         d="m 740.203,3883.29 h -57.547 c -15.898,0 -28.781,12.88 -28.781,28.77 v 0 c 0,15.89 12.883,28.78 28.781,28.78 h 57.547 c 15.891,0 28.77,-12.89 28.77,-28.78 v 0 c 0,-15.89 -12.879,-28.77 -28.77,-28.77"
         style="fill:#b3c0e2;fill-opacity:1;fill-rule:nonzero;stroke:none"
         id="path62" /><path
         d="m 740.203,3787.38 h -57.547 c -15.898,0 -28.781,12.88 -28.781,28.77 v 0 c 0,15.89 12.883,28.77 28.781,28.77 h 57.547 c 15.891,0 28.77,-12.88 28.77,-28.77 v 0 c 0,-15.89 -12.879,-28.77 -28.77,-28.77"
         style="fill:#b3c0e2;fill-opacity:1;fill-rule:nonzero;stroke:none"
         id="path64" /><path
         d="m 740.203,3691.46 h -57.547 c -15.898,0 -28.781,12.88 -28.781,28.77 v 0 c 0,15.9 12.883,28.78 28.781,28.78 h 57.547 c 15.891,0 28.77,-12.88 28.77,-28.78 v 0 c 0,-15.89 -12.879,-28.77 -28.77,-28.77"
         style="fill:#b3c0e2;fill-opacity:1;fill-rule:nonzero;stroke:none"
         id="path66" /><path
         d="m 740.203,3595.55 h -57.547 c -15.898,0 -28.781,12.88 -28.781,28.77 v 0 c 0,15.89 12.883,28.77 28.781,28.77 h 57.547 c 15.891,0 28.77,-12.88 28.77,-28.77 v 0 c 0,-15.89 -12.879,-28.77 -28.77,-28.77"
         style="fill:#b3c0e2;fill-opacity:1;fill-rule:nonzero;stroke:none"
         id="path68" /><path
         d="m 1181.41,4554.68 h -153.47 c -15.89,0 -28.772,12.88 -28.772,28.78 v 0 c 0,15.88 12.882,28.77 28.772,28.77 h 153.47 c 15.88,0 28.77,-12.89 28.77,-28.77 v 0 c 0,-15.9 -12.89,-28.78 -28.77,-28.78"
         style="fill:#b3c0e2;fill-opacity:1;fill-rule:nonzero;stroke:none"
         id="path70" /><path
         d="m 971.551,4617.37 -27.129,-27.13 c -3.738,-3.75 -3.738,-9.82 0,-13.57 l 27.129,-27.13 c 3.75,-3.74 9.824,-3.74 13.566,0 3.75,3.75 3.75,9.82 0,13.57 l -20.344,20.35 20.344,20.34 c 3.75,3.75 3.75,9.82 0,13.57 -3.742,3.74 -9.816,3.74 -13.566,0"
         style="fill:#b3c0e2;fill-opacity:1;fill-rule:nonzero;stroke:none"
         id="path72" /><path
         d="m 971.551,3658.23 -27.129,-27.13 c -3.738,-3.74 -3.738,-9.81 0,-13.56 l 27.129,-27.13 c 3.75,-3.75 9.824,-3.75 13.566,0 3.75,3.75 3.75,9.82 0,13.57 l -20.344,20.34 20.344,20.35 c 3.75,3.74 3.75,9.82 0,13.56 -3.742,3.75 -9.816,3.75 -13.566,0"
         style="fill:#b3c0e2;fill-opacity:1;fill-rule:nonzero;stroke:none"
         id="path74" /><path
         d="m 1236.14,4617.37 27.13,-27.13 c 3.74,-3.75 3.74,-9.82 0,-13.57 l -27.13,-27.13 c -3.75,-3.74 -9.82,-3.74 -13.56,0 -3.75,3.75 -3.75,9.82 0,13.57 l 20.34,20.35 -20.34,20.34 c -3.75,3.75 -3.75,9.82 0,13.57 3.74,3.74 9.81,3.74 13.56,0"
         style="fill:#b3c0e2;fill-opacity:1;fill-rule:nonzero;stroke:none"
         id="path76" /><path
         d="m 1299.29,3658.23 27.12,-27.13 c 3.75,-3.74 3.75,-9.81 0,-13.56 l -27.12,-27.13 c -3.75,-3.75 -9.83,-3.75 -13.57,0 -3.75,3.75 -3.75,9.82 0,13.57 l 20.34,20.34 -20.34,20.35 c -3.75,3.74 -3.75,9.82 0,13.56 3.74,3.75 9.82,3.75 13.57,0"
         style="fill:#b3c0e2;fill-opacity:1;fill-rule:nonzero;stroke:none"
         id="path78" /><path
         d="M 1123.86,4458.77 H 970.391 c -15.891,0 -28.77,12.88 -28.77,28.77 v 0 c 0,15.89 12.879,28.78 28.77,28.78 h 153.469 c 15.89,0 28.77,-12.89 28.77,-28.78 v 0 c 0,-15.89 -12.88,-28.77 -28.77,-28.77"
         style="fill:#ffa79b;fill-opacity:1;fill-rule:nonzero;stroke:none"
         id="path80" /><path
         d="m 1237.3,4362.85 h -170.99 c -15.9,0 -28.78,12.89 -28.78,28.78 v 0 c 0,15.89 12.88,28.77 28.78,28.77 h 170.99 c 15.89,0 28.77,-12.88 28.77,-28.77 v 0 c 0,-15.89 -12.88,-28.78 -28.77,-28.78"
         style="fill:#ffc75d;fill-opacity:1;fill-rule:nonzero;stroke:none"
         id="path82" /><path
         d="m 1395.78,4362.85 h -80.1 c -15.9,0 -28.78,12.89 -28.78,28.78 v 0 c 0,15.89 12.88,28.77 28.78,28.77 h 80.1 c 15.89,0 28.77,-12.88 28.77,-28.77 v 0 c 0,-15.89 -12.88,-28.78 -28.77,-28.78"
         style="fill:#4541fc;fill-opacity:1;fill-rule:nonzero;stroke:none"
         id="path84" /><path
         d="m 1786.53,4362.85 h -307.8 c -15.89,0 -28.77,12.89 -28.77,28.78 v 0 c 0,15.89 12.88,28.77 28.77,28.77 h 307.8 c 15.89,0 28.77,-12.88 28.77,-28.77 v 0 c 0,-15.89 -12.88,-28.78 -28.77,-28.78"
         style="fill:#ffa79b;fill-opacity:1;fill-rule:nonzero;stroke:none"
         id="path86" /><path
         d="m 2290.69,4362.85 h -418.72 c -15.89,0 -28.77,12.89 -28.77,28.78 v 0 c 0,15.89 12.88,28.77 28.77,28.77 h 418.72 c 15.89,0 28.77,-12.88 28.77,-28.77 v 0 c 0,-15.89 -12.88,-28.78 -28.77,-28.78"
         style="fill:#8bbae8;fill-opacity:1;fill-rule:nonzero;stroke:none"
         id="path88" /><path
         d="m 2534.08,4362.85 h -160.4 c -15.9,0 -28.78,12.89 -28.78,28.78 v 0 c 0,15.89 12.88,28.77 28.78,28.77 h 160.4 c 15.89,0 28.77,-12.88 28.77,-28.77 v 0 c 0,-15.89 -12.88,-28.78 -28.77,-28.78"
         style="fill:#ffa79b;fill-opacity:1;fill-rule:nonzero;stroke:none"
         id="path90" /><path
         d="m 1333.56,4266.94 h -267.25 c -15.9,0 -28.78,12.88 -28.78,28.78 v 0 c 0,15.88 12.88,28.77 28.78,28.77 h 267.25 c 15.9,0 28.78,-12.89 28.78,-28.77 v 0 c 0,-15.9 -12.88,-28.78 -28.78,-28.78"
         style="fill:#8bbae8;fill-opacity:1;fill-rule:nonzero;stroke:none"
         id="path92" /><path
         d="m 1586.49,4266.94 h -174.9 c -15.89,0 -28.77,12.88 -28.77,28.78 v 0 c 0,15.88 12.88,28.77 28.77,28.77 h 174.9 c 15.9,0 28.78,-12.89 28.78,-28.77 v 0 c 0,-15.9 -12.88,-28.78 -28.78,-28.78"
         style="fill:#ffc75d;fill-opacity:1;fill-rule:nonzero;stroke:none"
         id="path94" /><path
         d="m 2030.54,4266.94 h -363.58 c -15.89,0 -28.77,12.88 -28.77,28.78 v 0 c 0,15.88 12.88,28.77 28.77,28.77 h 363.58 c 15.89,0 28.78,-12.89 28.78,-28.77 v 0 c 0,-15.9 -12.89,-28.78 -28.78,-28.78"
         style="fill:#ffa79b;fill-opacity:1;fill-rule:nonzero;stroke:none"
         id="path96" /><path
         d="m 2384.6,4266.94 h -274.49 c -15.89,0 -28.77,12.88 -28.77,28.78 v 0 c 0,15.88 12.88,28.77 28.77,28.77 h 274.49 c 15.89,0 28.77,-12.89 28.77,-28.77 v 0 c 0,-15.9 -12.88,-28.78 -28.77,-28.78"
         style="fill:#4541fc;fill-opacity:1;fill-rule:nonzero;stroke:none"
         id="path98" /><path
         d="m 1181.41,4171.03 h -115.1 c -15.9,0 -28.78,12.88 -28.78,28.77 v 0 c 0,15.89 12.88,28.78 28.78,28.78 h 115.1 c 15.88,0 28.77,-12.89 28.77,-28.78 v 0 c 0,-15.89 -12.89,-28.77 -28.77,-28.77"
         style="fill:#b3c0e2;fill-opacity:1;fill-rule:nonzero;stroke:none"
         id="path100" /><path
         d="m 1504.38,4171.03 h -245.04 c -15.9,0 -28.78,12.88 -28.78,28.77 v 0 c 0,15.89 12.88,28.78 28.78,28.78 h 245.04 c 15.9,0 28.78,-12.89 28.78,-28.78 v 0 c 0,-15.89 -12.88,-28.77 -28.78,-28.77"
         style="fill:#ffc75d;fill-opacity:1;fill-rule:nonzero;stroke:none"
         id="path102" /><path
         d="m 2158.45,4171.03 h -574.61 c -15.89,0 -28.78,12.88 -28.78,28.77 v 0 c 0,15.89 12.89,28.78 28.78,28.78 h 574.61 c 15.89,0 28.77,-12.89 28.77,-28.78 v 0 c 0,-15.89 -12.88,-28.77 -28.77,-28.77"
         style="fill:#8bbae8;fill-opacity:1;fill-rule:nonzero;stroke:none"
         id="path104" /><path
         d="M 1123.86,4075.12 H 970.391 c -15.891,0 -28.77,12.88 -28.77,28.77 v 0 c 0,15.89 12.879,28.77 28.77,28.77 h 153.469 c 15.89,0 28.77,-12.88 28.77,-28.77 v 0 c 0,-15.89 -12.88,-28.77 -28.77,-28.77"
         style="fill:#ffa79b;fill-opacity:1;fill-rule:nonzero;stroke:none"
         id="path106" /><path
         d="M 1123.86,3979.2 H 970.391 c -15.891,0 -28.77,12.88 -28.77,28.78 v 0 c 0,15.89 12.879,28.77 28.77,28.77 h 153.469 c 15.89,0 28.77,-12.88 28.77,-28.77 v 0 c 0,-15.9 -12.88,-28.78 -28.77,-28.78"
         style="fill:#ffa79b;fill-opacity:1;fill-rule:nonzero;stroke:none"
         id="path108" /><path
         d="m 1300.45,3883.29 h -234.14 c -15.9,0 -28.78,12.88 -28.78,28.77 v 0 c 0,15.89 12.88,28.78 28.78,28.78 h 234.14 c 15.89,0 28.77,-12.89 28.77,-28.78 v 0 c 0,-15.89 -12.88,-28.77 -28.77,-28.77"
         style="fill:#4541fc;fill-opacity:1;fill-rule:nonzero;stroke:none"
         id="path110" /><path
         d="m 1915.75,3883.29 h -533.78 c -15.89,0 -28.77,12.88 -28.77,28.77 v 0 c 0,15.89 12.88,28.78 28.77,28.78 h 533.78 c 15.89,0 28.78,-12.89 28.78,-28.78 v 0 c 0,-15.89 -12.89,-28.77 -28.78,-28.77"
         style="fill:#ffc75d;fill-opacity:1;fill-rule:nonzero;stroke:none"
         id="path112" /><path
         d="M 2275.12,3883.29 H 2000.3 c -15.89,0 -28.77,12.88 -28.77,28.77 v 0 c 0,15.89 12.88,28.78 28.77,28.78 h 274.82 c 15.89,0 28.77,-12.89 28.77,-28.78 v 0 c 0,-15.89 -12.88,-28.77 -28.77,-28.77"
         style="fill:#ffa79b;fill-opacity:1;fill-rule:nonzero;stroke:none"
         id="path114" /><path
         d="m 1237.3,3787.38 h -170.99 c -15.9,0 -28.78,12.88 -28.78,28.77 v 0 c 0,15.89 12.88,28.77 28.78,28.77 h 170.99 c 15.89,0 28.77,-12.88 28.77,-28.77 v 0 c 0,-15.89 -12.88,-28.77 -28.77,-28.77"
         style="fill:#ffc75d;fill-opacity:1;fill-rule:nonzero;stroke:none"
         id="path116" /><path
         d="m 1603.86,3787.38 h -288.18 c -15.9,0 -28.78,12.88 -28.78,28.77 v 0 c 0,15.89 12.88,28.77 28.78,28.77 h 288.18 c 15.89,0 28.77,-12.88 28.77,-28.77 v 0 c 0,-15.89 -12.88,-28.77 -28.77,-28.77"
         style="fill:#8bbae8;fill-opacity:1;fill-rule:nonzero;stroke:none"
         id="path118" /><path
         d="m 1786.53,3787.38 h -99.44 c -15.9,0 -28.78,12.88 -28.78,28.77 v 0 c 0,15.89 12.88,28.77 28.78,28.77 h 99.44 c 15.89,0 28.77,-12.88 28.77,-28.77 v 0 c 0,-15.89 -12.88,-28.77 -28.77,-28.77"
         style="fill:#ffc75d;fill-opacity:1;fill-rule:nonzero;stroke:none"
         id="path120" /><path
         d="M 1123.86,3691.46 H 970.391 c -15.891,0 -28.77,12.88 -28.77,28.77 v 0 c 0,15.9 12.879,28.78 28.77,28.78 h 153.469 c 15.89,0 28.77,-12.88 28.77,-28.78 v 0 c 0,-15.89 -12.88,-28.77 -28.77,-28.77"
         style="fill:#ffa79b;fill-opacity:1;fill-rule:nonzero;stroke:none"
         id="path122" /><path
         d="m 1239.75,3595.55 h -153.46 c -15.89,0 -28.78,12.88 -28.78,28.77 v 0 c 0,15.89 12.89,28.77 28.78,28.77 h 153.46 c 15.88,0 28.77,-12.88 28.77,-28.77 v 0 c 0,-15.89 -12.89,-28.77 -28.77,-28.77"
         style="fill:#b3c0e2;fill-opacity:1;fill-rule:nonzero;stroke:none"
         id="path124" /><path
         d="m 1005.24,3605.1 27.75,48.04 c 2.64,4.59 8.51,6.16 13.09,3.51 v 0 c 4.59,-2.65 6.17,-8.52 3.52,-13.1 l -27.74,-48.04 c -2.65,-4.59 -8.51,-6.16 -13.1,-3.51 v 0 c -4.59,2.64 -6.16,8.51 -3.52,13.1"
         style="fill:#b3c0e2;fill-opacity:1;fill-rule:nonzero;stroke:none"
         id="path126" /><path
         d="M 7399.17,65 H 4494.6 c -163.33,0 -295.73,132.41 -295.73,295.742 V 6533.17 c 0,163.33 132.4,295.73 295.73,295.73 h 2904.57 c 163.33,0 295.73,-132.4 295.73,-295.73 V 360.742 C 7694.9,197.41 7562.5,65 7399.17,65"
         style="fill:#cfe5ff;fill-opacity:1;fill-rule:nonzero;stroke:none"
         id="path128" /><path
         d="m 7694.9,6545.25 c 0,156.66 -126.99,283.65 -283.65,283.65 H 4482.51 c -156.65,0 -283.64,-126.99 -283.64,-283.65 v -2624.1 c 382.39,-325.69 913.96,-612.6 1637.37,-700.71 768.95,-93.65 1389.97,-23.72 1858.66,93.92 v 3230.89"
         style="fill:#bcd7fd;fill-opacity:1;fill-rule:nonzero;stroke:none"
         id="path130" /><path
         d="M 4825.13,906.59 H 4020.3 c -61.24,0 -110.89,49.652 -110.89,110.9 v 804.83 c 0,61.25 49.65,110.9 110.89,110.9 h 804.83 c 61.25,0 110.89,-49.65 110.89,-110.9 v -804.83 c 0,-61.248 -49.64,-110.9 -110.89,-110.9"
         style="fill:#8bbae8;fill-opacity:1;fill-rule:nonzero;stroke:none"
         id="path132" /><path
         d="m 6008.97,906.59 h -804.82 c -61.25,0 -110.9,49.652 -110.9,110.9 v 804.83 c 0,61.25 49.65,110.9 110.9,110.9 h 804.82 c 61.25,0 110.89,-49.65 110.89,-110.89 v -804.84 c 0,-61.248 -49.65,-110.9 -110.89,-110.9"
         style="fill:#8bbae8;fill-opacity:1;fill-rule:nonzero;stroke:none"
         id="path134" /><path
         d="m 7192.82,906.59 h -804.83 c -61.24,0 -110.89,49.652 -110.89,110.9 v 804.83 c 0,61.25 49.65,110.9 110.89,110.9 h 804.83 c 61.24,0 110.89,-49.65 110.89,-110.9 v -804.83 c 0,-61.248 -49.65,-110.9 -110.89,-110.9"
         style="fill:#8bbae8;fill-opacity:1;fill-rule:nonzero;stroke:none"
         id="path136" /><path
         d="M 7238.86,175.988 H 4334.29 c -163.33,0 -295.74,132.403 -295.74,295.731 V 6644.15 c 0,163.33 132.41,295.74 295.74,295.74 h 2904.57 c 163.33,0 295.73,-132.41 295.73,-295.74 V 471.719 c 0,-163.328 -132.4,-295.731 -295.73,-295.731 z"
         style="fill:none;stroke:#687ccd;stroke-width:30;stroke-linecap:butt;stroke-linejoin:miter;stroke-miterlimit:10;stroke-dasharray:none;stroke-opacity:1"
         id="path138" /><path
         d="M 6502.22,4537.66 H 5237.74 c -65.99,0 -120,54.01 -120,120 v 1264.48 c 0,65.99 54.01,120 120,120 h 1264.48 c 65.99,0 120,-54.01 120,-120 V 4657.66 c 0,-65.99 -54.01,-120 -120,-120"
         style="fill:#63a7ea;fill-opacity:1;fill-rule:nonzero;stroke:none"
         id="path140" /><path
         d="m 7343.76,5368.38 -241.98,241.97 -78.48,-78.47 241.97,-241.98 -241.97,-241.98 78.48,-78.47 241.98,241.97 78.48,78.48 -78.48,78.48"
         style="fill:#ffffff;fill-opacity:1;fill-rule:nonzero;stroke:none"
         id="path142" /><path
         d="m 4365.71,5211.42 241.98,-241.97 78.48,78.47 -241.97,241.98 241.97,241.98 -78.48,78.47 -241.98,-241.97 -78.47,-78.48 78.47,-78.48"
         style="fill:#ffffff;fill-opacity:1;fill-rule:nonzero;stroke:none"
         id="path144" /><path
         d="m 7376.65,6557.14 h -269.2 c -14.14,0 -25.71,11.57 -25.71,25.71 v 10.23 c 0,14.15 11.57,25.72 25.72,25.72 h 269.19 c 14.14,0 25.71,-11.57 25.71,-25.71 v -10.24 c 0,-14.14 -11.57,-25.71 -25.71,-25.71"
         style="fill:#74abed;fill-opacity:1;fill-rule:nonzero;stroke:none"
         id="path146" /><path
         d="m 7376.65,6464.65 h -269.19 c -14.15,0 -25.72,11.57 -25.72,25.71 v 10.23 c 0,14.14 11.57,25.72 25.71,25.72 h 269.2 c 14.14,0 25.71,-11.58 25.71,-25.72 v -10.23 c 0,-14.14 -11.57,-25.71 -25.71,-25.71"
         style="fill:#74abed;fill-opacity:1;fill-rule:nonzero;stroke:none"
         id="path148" /><path
         d="m 7376.65,6372.16 h -269.2 c -14.14,0 -25.71,11.57 -25.71,25.71 v 10.23 c 0,14.15 11.57,25.72 25.71,25.72 h 269.2 c 14.14,0 25.71,-11.57 25.71,-25.71 v -10.24 c 0,-14.14 -11.57,-25.71 -25.71,-25.71"
         style="fill:#74abed;fill-opacity:1;fill-rule:nonzero;stroke:none"
         id="path150" /><path
         d="m 4747.78,6497.2 -155.99,155.99 c -4.32,4.32 -11.32,4.32 -15.64,0 L 4420.16,6497.2 c -6.97,-6.97 -2.04,-18.88 7.82,-18.88 h 43.23 v -132.74 c 0,-6.1 4.95,-11.06 11.05,-11.06 h 203.41 c 6.12,0 11.07,4.96 11.07,11.06 v 132.74 h 43.23 c 9.85,0 14.78,11.91 7.81,18.88"
         style="fill:#74abed;fill-opacity:1;fill-rule:nonzero;stroke:none"
         id="path152" /><path
         d="M 6770.19,3363.69 H 4969.76 c -64.43,0 -117.14,52.72 -117.14,117.15 v 0 c 0,64.44 52.71,117.16 117.14,117.16 h 1800.43 c 64.44,0 117.15,-52.72 117.15,-117.16 v 0 c 0,-64.43 -52.71,-117.15 -117.15,-117.15"
         style="fill:#ffffff;fill-opacity:1;fill-rule:nonzero;stroke:none"
         id="path154" /><path
         d="M 6909.24,3080.06 H 4568.85 c -27.05,0 -49.19,-22.13 -49.19,-49.18 v 0 c 0,-27.06 22.14,-49.19 49.19,-49.19 h 2340.39 c 27.05,0 49.19,22.13 49.19,49.19 v 0 c 0,27.05 -22.14,49.18 -49.19,49.18"
         style="fill:#ffffff;fill-opacity:1;fill-rule:nonzero;stroke:none"
         id="path156" /><path
         d="M 6909.24,2823.35 H 4568.85 c -27.05,0 -49.19,-22.14 -49.19,-49.19 v 0 c 0,-27.06 22.14,-49.19 49.19,-49.19 h 2340.39 c 27.05,0 49.19,22.13 49.19,49.19 v 0 c 0,27.05 -22.14,49.19 -49.19,49.19"
         style="fill:#ffffff;fill-opacity:1;fill-rule:nonzero;stroke:none"
         id="path158" /><path
         d="M 6909.24,2566.63 H 4568.85 c -27.05,0 -49.19,-22.14 -49.19,-49.19 v 0 c 0,-27.06 22.14,-49.19 49.19,-49.19 h 2340.39 c 27.05,0 49.19,22.13 49.19,49.19 v 0 c 0,27.05 -22.14,49.19 -49.19,49.19"
         style="fill:#ffffff;fill-opacity:1;fill-rule:nonzero;stroke:none"
         id="path160" /><path
         d="M 6156.16,2309.91 H 4568.85 c -27.05,0 -49.19,-22.13 -49.19,-49.19 v 0 c 0,-27.05 22.14,-49.18 49.19,-49.18 h 1587.31 c 27.05,0 49.19,22.13 49.19,49.18 v 0 c 0,27.06 -22.14,49.19 -49.19,49.19"
         style="fill:#ffffff;fill-opacity:1;fill-rule:nonzero;stroke:none"
         id="path162" /><path
         d="M 6344.47,4684.41 H 5080.01 c -66.01,0 -120,54 -120,120 v 1264.47 c 0,66 53.99,120 120,120 h 1264.46 c 66,0 120,-54 120,-120 V 4804.41 c 0,-66 -54,-120 -120,-120"
         style="fill:#e2ecf9;fill-opacity:1;fill-rule:nonzero;stroke:none"
         id="path164" /><path
         d="m 4962.54,5096.71 -9.11,-212.07 h -209.39 l 61.2,220.89 157.3,-8.82"
         style="fill:#ffc75d;fill-opacity:1;fill-rule:nonzero;stroke:none"
         id="path166" /><path
         d="m 4953.43,4884.64 -30.12,-696.33 c -4.03,-95.14 -76.35,-173.31 -170.82,-184.82 l -631.59,-76.83 -26.18,56.4 -149.63,321.88 h 638.21 l 160.74,579.7 h 209.39"
         style="fill:#e5a39e;fill-opacity:1;fill-rule:nonzero;stroke:none"
         id="path168" /><path
         d="m 4805.26,5105.5 c 0,0 -36.29,95.93 -15.06,192.62 21.22,96.69 89.5,106.13 143.73,125 54.24,18.86 94.34,35.37 143.86,-28.31 49.53,-63.67 77.83,-58.95 37.74,-70.74 -40.09,-11.8 -73.11,-14.15 -94.34,11.79 -21.22,25.94 -23.58,37.73 -23.58,37.73 0,0 47.16,-96.69 18.86,-129.71 -28.3,-33.02 -56.46,-35.38 -56.46,-35.38 l 2.48,-111.8 -157.23,8.8"
         style="fill:#ffc75d;fill-opacity:1;fill-rule:nonzero;stroke:none"
         id="path170" /><path
         d="m 4604.18,4263.73 c 3.84,-33.83 7.67,-67.65 11.51,-101.48 0.94,-8.3 14.07,-8.39 13.13,0 -3.84,33.83 -7.68,67.65 -11.52,101.48 -0.93,8.29 -14.07,8.39 -13.12,0 v 0"
         style="fill:#000000;fill-opacity:1;fill-rule:nonzero;stroke:none"
         id="path172" /><path
         d="m 4635.17,4283.69 c 31,-21.33 62,-42.67 93,-63.99 6.98,-4.8 13.55,6.56 6.62,11.33 -30.99,21.33 -62,42.66 -92.99,63.99 -6.99,4.8 -13.55,-6.57 -6.63,-11.33 v 0"
         style="fill:#000000;fill-opacity:1;fill-rule:nonzero;stroke:none"
         id="path174" /><path
         d="m 3898.89,4762.4 c 0,0 203.46,52.78 120.23,246.33 -83.24,193.54 -258.97,219.94 -369.96,131.96 -110.98,-87.97 -27.74,-211.14 -27.74,-211.14 0,0 -101.74,61.59 -147.98,-17.59 -46.24,-79.18 9.24,-123.17 9.24,-123.17 0,0 -138.73,46.77 -175.72,-43.95 -43.18,-105.9 83.23,-132 83.23,-132 0,0 -55.48,-70.38 -27.74,-123.17 27.74,-52.78 64.75,-70.38 64.75,-70.38 0,0 -147.99,-26.39 -147.99,-149.56 0,-123.16 203.47,-87.97 203.47,-87.97 h 268.22 l 18.5,457.47 129.49,123.17"
         style="fill:#000000;fill-opacity:1;fill-rule:nonzero;stroke:none"
         id="path176" /><path
         d="m 3667.67,4507.27 -18.51,-228.74 232.5,-107.11 7.98,318.25 100.55,36.45 c 48.21,17.46 68.01,74.92 40.82,118.38 l -178.37,285.05 c 0,0 -55.49,-255.13 -138.73,-272.73 -83.25,-17.59 -92.49,43.99 -92.49,43.99 0,0 -147.98,-70.38 -92.5,-149.55 55.5,-79.18 138.75,-43.99 138.75,-43.99"
         style="fill:#ffc75d;fill-opacity:1;fill-rule:nonzero;stroke:none"
         id="path178" /><path
         d="m 3898.9,4761.22 c 8.32,-22.38 25.97,-39.85 48.48,-47.85 -1.6,2.11 -3.2,4.22 -4.81,6.33 -0.91,-9.17 -4.48,-18.31 -10.13,-25.6 -2.17,-2.8 -2.72,-6.55 0,-9.28 2.27,-2.26 7.1,-2.82 9.29,0 7.99,10.3 12.67,21.88 13.96,34.88 0.31,2.99 -2.27,5.42 -4.81,6.33 -17.88,6.35 -32.71,20.88 -39.33,38.68 -1.23,3.32 -4.44,5.58 -8.06,4.58 -3.2,-0.88 -5.83,-4.74 -4.59,-8.07 v 0"
         style="fill:#000000;fill-opacity:1;fill-rule:nonzero;stroke:none"
         id="path180" /><path
         d="m 3938.6,4604.58 c -26.93,-18 -65.42,-11.73 -85.55,13.53 -2.23,2.79 -6.95,2.28 -9.28,0 -2.77,-2.71 -2.2,-6.53 0,-9.28 23.57,-29.57 70.1,-36.54 101.45,-15.58 7,4.67 0.43,16.04 -6.62,11.33 v 0"
         style="fill:#000000;fill-opacity:1;fill-rule:nonzero;stroke:none"
         id="path182" /><path
         d="m 3879.94,4504.47 c -20.55,-6.2 -41.08,-12.4 -61.63,-18.6 -8.07,-2.44 -4.63,-15.11 3.5,-12.66 20.53,6.2 41.08,12.4 61.62,18.6 8.06,2.44 4.63,15.11 -3.49,12.66 v 0"
         style="fill:#000000;fill-opacity:1;fill-rule:nonzero;stroke:none"
         id="path184" /><path
         d="m 3572.97,4580.33 c -1.24,27.57 26.04,50.13 52.78,47.76 27.77,-2.47 49.49,-28.9 52.69,-55.51 3.73,1.54 7.47,3.09 11.2,4.63 -13.39,15.13 -35.16,22.05 -54.77,16.74 -19,-5.14 -34,-21.17 -38.54,-40.21 -1.96,-8.21 10.69,-11.72 12.65,-3.49 3.52,14.71 14.61,27.05 29.39,31.04 15.33,4.15 31.62,-1.65 41.99,-13.36 3.54,-3.99 11.89,-1.03 11.2,4.65 -4.09,34.08 -30.25,65.65 -65.81,68.63 -33.62,2.83 -67.46,-26.52 -65.91,-60.88 0.37,-8.41 13.51,-8.46 13.13,0 v 0"
         style="fill:#000000;fill-opacity:1;fill-rule:nonzero;stroke:none"
         id="path186" /><path
         d="m 3306.96,2738.96 1183.84,17.6 -184.97,862.16 14.54,14.98 c 115.22,118.73 114.24,307.82 -2.19,425.35 l -154.89,156.35 c -56.75,57.29 -134.05,89.52 -214.7,89.52 h -282.65 c -132.98,0 -241.87,-105.71 -245.79,-238.63 L 3306.96,2738.96"
         style="fill:#ffa79b;fill-opacity:1;fill-rule:nonzero;stroke:none"
         id="path188" /><path
         d="m 3360.13,3362.49 -10.79,-126.53 372.17,-78.33 -293.03,227.64 -68.35,-22.78"
         style="fill:#000000;fill-opacity:1;fill-rule:nonzero;stroke:none"
         id="path190" /><path
         d="m 4259.66,3634.15 c -47.61,41.78 -116.74,37.1 -175.87,35.4 -61.25,-1.76 -124.73,-6.39 -182.19,-29.37 -30.92,-12.36 -59.1,-29.99 -82.48,-53.82 -5.92,-6.04 3.36,-15.33 9.29,-9.28 40.7,41.5 95.77,61.33 152.1,70.69 56.6,9.4 116.72,11.76 173.99,8.81 34.18,-1.75 69.42,-8.49 95.88,-31.71 6.33,-5.56 15.64,3.69 9.28,9.28 v 0"
         style="fill:#000000;fill-opacity:1;fill-rule:nonzero;stroke:none"
         id="path192" /><path
         d="m 3609.99,384.582 -44.02,-162.383 c -83.26,0 -101.76,-37.019 -138.79,0 -11.7,11.711 -41.92,22.453 -80.76,31.75 l 8.06,130.633 h 255.51"
         style="fill:#ffc75d;fill-opacity:1;fill-rule:nonzero;stroke:none"
         id="path194" /><path
         d="m 4819.17,384.582 -4.7,-144.16 c -83.16,18.32 -46.23,-82.961 -101.67,-36.731 -8.83,7.391 -41.81,12.86 -91.31,16.879 l -28,164.012 h 225.68"
         style="fill:#ffc75d;fill-opacity:1;fill-rule:nonzero;stroke:none"
         id="path196" /><path
         d="M 4848.43,1280.99 4819.17,384.582 H 4593.49 L 4482.9,1031.33 c -7,41.52 -9.88,83.73 -8.35,125.84 l 7,200.55 -443.98,774.22 L 3871.16,1349 3609.99,384.582 h -255.51 l 38.08,616.538 c 4.6,66.18 17.35,131.59 37.88,194.79 l 61.48,188.18 c 0,0 -129.48,669.39 -138.69,891.33 -9.31,221.94 27.72,463.55 27.72,463.55 l 1109.81,17.55 336.94,-1289.84 c 15.74,-60.62 22.74,-123.05 20.73,-185.69"
         style="fill:#000000;fill-opacity:1;fill-rule:nonzero;stroke:none"
         id="path198" /><path
         d="m 3835.1,65 h -500.38 l 11.7,188.949 c 38.84,-9.297 69.06,-20.039 80.76,-31.75 37.03,-37.019 55.53,0 138.79,0 L 3844.98,121.301 C 3875.48,110.281 3867.62,65 3835.1,65"
         style="fill:#687ccd;fill-opacity:1;fill-rule:nonzero;stroke:none"
         id="path200" /><path
         d="m 5112.47,65 h -464.41 l -26.57,155.57 c 49.5,-4.019 82.48,-9.488 91.31,-16.879 55.44,-46.23 18.51,55.051 101.67,36.731 L 5122.93,121.02 C 5152.85,109.5 5144.6,65 5112.47,65"
         style="fill:#687ccd;fill-opacity:1;fill-rule:nonzero;stroke:none"
         id="path202" /><path
         d="m 3524.9,2691.02 c -8.9,-149.02 -12.73,-298.33 -11.34,-447.62 1.39,-149.28 7.95,-298.5 19.66,-447.33 5.86,-74.42 13,-148.72 21.43,-222.89 8.46,-74.51 19.66,-148.62 28.83,-223.02 4.45,-36.12 7.27,-72.5 5.15,-108.91 -2.16,-37.22 -8.8,-73.97 -15.98,-110.5 -14.37,-73.01 -28.63,-146.012 -41.81,-219.238 -26.42,-146.832 -49.73,-294.211 -69.91,-442.012 -2.41,-17.59 -4.76,-35.172 -7.08,-52.77 -1.11,-8.339 12.03,-8.261 13.12,0 19.62,148.801 42.38,297.192 68.31,445.02 12.88,73.469 26.55,146.8 40.98,219.98 13.97,70.84 29.46,141.38 25.43,214.05 -4.07,73.48 -18.12,146.6 -27.08,219.58 -9.19,74.83 -17.06,149.82 -23.63,224.92 -13,148.72 -20.84,297.89 -23.53,447.14 -2.69,149.27 -0.2,298.62 7.46,447.71 0.96,18.63 2,37.27 3.12,55.89 0.5,8.44 -12.62,8.41 -13.13,0 v 0"
         style="fill:#ffffff;fill-opacity:1;fill-rule:nonzero;stroke:none"
         id="path204" /><path
         d="m 3650.47,2698.54 c 23.5,-120.06 -11.51,-248.72 -92.52,-340.37 -5.58,-6.31 3.67,-15.62 9.28,-9.28 84.3,95.38 120.35,228.22 95.89,353.13 -1.62,8.29 -14.27,4.78 -12.65,-3.48 v 0"
         style="fill:#ffffff;fill-opacity:1;fill-rule:nonzero;stroke:none"
         id="path206" /><path
         d="m 4061.38,2155.52 c 5.97,44.91 23.37,87.74 49.74,124.52 4.93,6.87 -6.44,13.43 -11.33,6.62 -27.82,-38.8 -45.25,-83.87 -51.54,-131.14 -1.11,-8.35 12.02,-8.27 13.13,0 v 0"
         style="fill:#ffffff;fill-opacity:1;fill-rule:nonzero;stroke:none"
         id="path208" /><path
         d="m 4099.51,2208.25 c 110.84,-224.49 226.95,-446.37 348.3,-665.36 15.17,-27.37 30.42,-54.7 45.75,-81.98 14.85,-26.41 30.65,-52.5 43.5,-79.96 26.43,-56.49 27.43,-118.81 32.25,-179.86 9.89,-125.34 22.77,-250.461 38.63,-375.188 17.82,-140.293 39.41,-280.093 64.68,-419.242 1.5,-8.289 14.15,-4.769 12.65,3.5 -45.59,251.102 -79.12,504.36 -100.23,758.7 -4.92,59.27 -4.26,121.92 -21.35,179.32 -8.31,27.87 -21.89,53.72 -36.05,78.98 -15.2,27.13 -30.53,54.18 -45.68,81.33 -60.99,109.32 -120.7,219.35 -179.08,330.08 -65.68,124.58 -129.69,250.04 -192.03,376.31 -3.74,7.57 -15.07,0.93 -11.34,-6.63 v 0"
         style="fill:#ffffff;fill-opacity:1;fill-rule:nonzero;stroke:none"
         id="path210" /><path
         d="m 4028.34,3191.01 -73.95,-126.51 -232.88,93.13 100.14,193.36 206.69,-159.98"
         style="fill:#ffc75d;fill-opacity:1;fill-rule:nonzero;stroke:none"
         id="path212" /><path
         d="m 3538.22,3570.25 283.43,-219.26 -100.14,-193.36 -405.42,162.19 c -108.96,43.54 -164.87,164.59 -127.47,275.75 l 162.67,483.78 c 45.17,134.29 172.17,223.87 313.83,221.38 l 261.55,-4.61 -388.45,-725.87"
         style="fill:#ffa79b;fill-opacity:1;fill-rule:nonzero;stroke:none"
         id="path214" /><path
         d="m 4307.3,2113.47 -569.09,569.1 c -43.31,43.3 -43.31,113.52 0,156.82 l 569.09,569.1 c 43.31,43.31 113.53,43.31 156.83,0 l 569.1,-569.1 c 43.31,-43.3 43.31,-113.52 0,-156.82 l -569.1,-569.1 c -43.3,-43.31 -113.52,-43.31 -156.83,0"
         style="fill:#8bbae8;fill-opacity:1;fill-rule:nonzero;stroke:none"
         id="path216" /><path
         d="m 4138.21,3092.87 -32.99,108.99 c -8.07,26.66 -36.77,41.2 -63.05,31.92 -26.87,-9.49 -48.39,-30.04 -59.12,-56.44 l -58.23,-117.83 c -8.19,-20.17 -6.62,-42.98 4.26,-61.83 l 51.24,-81.01 c -7.29,-14.49 -14.24,-30.94 -14.24,-41.18 0,-21.58 35.81,-51.31 41.99,-29.73 6.16,21.58 36.32,54.49 36.32,54.49 l 26.25,39.11 c 16.8,15.82 25.81,38.22 24.65,61.26 l -1.71,33.95 c 30.89,-0.92 53.59,28.72 44.63,58.3"
         style="fill:#ffc75d;fill-opacity:1;fill-rule:nonzero;stroke:none"
         id="path218" /><path
         d="m 4057.54,3160.26 c 14.56,-38.99 27.48,-78.57 38.72,-118.66 2.28,-8.12 14.95,-4.66 12.66,3.5 -11.25,40.07 -24.17,79.65 -38.73,118.65 -2.93,7.84 -15.62,4.45 -12.65,-3.49 v 0"
         style="fill:#000000;fill-opacity:1;fill-rule:nonzero;stroke:none"
         id="path220" /><path
         d="m 4000.84,3207.09 c -26.52,-34.88 -49.44,-72.33 -68.44,-111.82 -3.64,-7.58 7.67,-14.24 11.33,-6.62 18.99,39.48 41.92,76.94 68.45,111.82 5.1,6.72 -6.28,13.26 -11.34,6.62 v 0"
         style="fill:#000000;fill-opacity:1;fill-rule:nonzero;stroke:none"
         id="path222" /><path
         d="m 4028.03,3094.25 c 15.97,-45.5 29.48,-91.82 40.46,-138.78 1.92,-8.22 14.58,-4.74 12.65,3.49 -10.97,46.96 -24.48,93.27 -40.46,138.78 -2.78,7.91 -15.47,4.5 -12.65,-3.49 v 0"
         style="fill:#000000;fill-opacity:1;fill-rule:nonzero;stroke:none"
         id="path224" /><path
         d="m 3988.6,3014.82 c 20.53,-32.96 37.44,-67.98 50.34,-104.6 2.8,-7.91 15.48,-4.5 12.66,3.49 -13.27,37.67 -30.55,73.83 -51.67,107.73 -4.45,7.16 -15.82,0.57 -11.33,-6.62 v 0"
         style="fill:#000000;fill-opacity:1;fill-rule:nonzero;stroke:none"
         id="path226" /><path
         d="m 3750.11,3957.19 c -54.86,-82.49 -104.64,-168.31 -148.81,-256.98 -10.89,-21.86 -21.45,-43.89 -31.65,-66.08 -7.91,-17.19 -21.71,-38.26 -10.31,-56.85 5.2,-8.47 13.41,-15.07 20.49,-21.87 9.92,-9.53 19.85,-19.06 29.77,-28.59 19.32,-18.56 38.64,-37.12 57.97,-55.68 42.82,-41.14 85.64,-82.28 128.46,-123.42 6.1,-5.85 15.39,3.42 9.28,9.28 -72.07,69.23 -144.13,138.47 -216.2,207.7 -7.41,7.11 -20.23,15.91 -21.24,27.03 -1.05,11.61 8.41,25.56 13.11,35.78 9.93,21.57 20.17,42.99 30.74,64.25 20.84,41.92 42.92,83.22 66.2,123.83 26.32,45.92 54.22,90.91 83.51,134.97 4.7,7.06 -6.67,13.64 -11.32,6.63 v 0"
         style="fill:#000000;fill-opacity:1;fill-rule:nonzero;stroke:none"
         id="path228" /><path
         d="m 3620.18,4241.25 c 65.52,-35.29 107.99,-106.37 107.79,-180.83 -0.02,-8.44 13.1,-8.45 13.12,0 0.22,78.89 -44.8,154.73 -114.28,192.17 -7.44,4 -14.08,-7.33 -6.63,-11.34 v 0"
         style="fill:#000000;fill-opacity:1;fill-rule:nonzero;stroke:none"
         id="path230" /><path
         d="m 3511.71,3595.31 c -30.83,0 -61.65,0 -92.48,0 -8.45,0 -8.47,-13.12 0,-13.12 30.83,0 61.65,0 92.48,0 8.45,0 8.46,13.12 0,13.12 v 0"
         style="fill:#000000;fill-opacity:1;fill-rule:nonzero;stroke:none"
         id="path232" /><path
         d="m 3526.71,3557.74 c -18.92,-11.32 -33.13,-29.5 -39.64,-50.54 -1.05,-3.39 1.24,-7.16 4.58,-8.08 3.52,-0.96 7.02,1.19 8.08,4.59 1.49,4.81 2.78,8.02 5.09,12.43 1.13,2.12 2.34,4.2 3.64,6.23 0.65,1.01 1.31,2.01 2.01,2.99 0.42,0.6 0.85,1.18 1.28,1.76 0.13,0.19 0.28,0.38 0.43,0.58 -0.22,-0.28 -0.2,-0.25 0.07,0.1 6.13,7.75 12.92,13.72 21.08,18.6 3.04,1.82 4.16,5.9 2.35,8.98 -1.77,3.05 -5.93,4.18 -8.97,2.36 v 0"
         style="fill:#000000;fill-opacity:1;fill-rule:nonzero;stroke:none"
         id="path234" /><path
         d="M 2036.8,482.512 1917.87,231.41 c -92.56,18.512 -110.98,-36.918 -148,9.309 -15.53,19.472 -62.24,20.902 -110.97,16.011 l 76.16,225.782 h 301.74"
         style="fill:#ffa79b;fill-opacity:1;fill-rule:nonzero;stroke:none"
         id="path236" /><path
         d="m 2309.38,1057.71 -203.65,-575.198 -377.6,-1.352 371.59,1082.1 209.66,-505.55"
         style="fill:#687ccd;fill-opacity:1;fill-rule:nonzero;stroke:none"
         id="path238" /><path
         d="m 2212.97,785.391 96.41,272.319 -209.66,505.55 -106.28,-309.52 219.53,-468.349"
         style="fill:#000000;fill-opacity:1;fill-rule:nonzero;stroke:none"
         id="path240" /><path
         d="m 2171.65,65 h -577.49 l 64.74,191.73 c 48.73,4.891 95.44,3.461 110.97,-16.011 37.02,-46.227 55.44,9.203 148,-9.309 l 265.2,-108.48 C 2213.66,110.461 2204.65,65 2171.65,65"
         style="fill:#4541fc;fill-opacity:1;fill-rule:nonzero;stroke:none"
         id="path242" /><path
         d="m 2157.27,1182.16 c -61.79,-171.96 -123.6,-343.91 -185.41,-515.871 -17.48,-48.629 -34.96,-97.269 -52.44,-145.918 -2.86,-7.949 9.82,-11.383 12.66,-3.48 61.8,171.949 123.6,343.898 185.41,515.859 17.48,48.64 34.96,97.27 52.44,145.92 2.86,7.96 -9.81,11.39 -12.66,3.49 v 0"
         style="fill:#000000;fill-opacity:1;fill-rule:nonzero;stroke:none"
         id="path244" /><path
         d="m 1788.49,576.969 c 112.17,-3.239 224.35,-6.469 336.53,-9.699 8.45,-0.25 8.45,12.878 0,13.121 -112.18,3.238 -224.36,6.468 -336.53,9.699 -8.46,0.242 -8.45,-12.879 0,-13.121 v 0"
         style="fill:#000000;fill-opacity:1;fill-rule:nonzero;stroke:none"
         id="path246" /><path
         d="m 2971.17,2430.59 h -846.78 v 37 h 846.78 v -37"
         style="fill:#000000;fill-opacity:1;fill-rule:nonzero;stroke:none"
         id="path248" /><path
         d="m 2935.54,2442.26 236.36,691.68 25.35,-8.66 -236.36,-691.68 -25.35,8.66"
         style="fill:#000000;fill-opacity:1;fill-rule:nonzero;stroke:none"
         id="path250" /><path
         d="m 1199.52,3326.7 382.28,386.39 345.29,-176.75 -138.6,-259.87 c -32.02,-60.04 -107.59,-81.33 -166.24,-46.83 l -102.1,60.06 -110.99,-147.98 -209.64,184.98"
         style="fill:#ffa79b;fill-opacity:1;fill-rule:nonzero;stroke:none"
         id="path252" /><path
         d="m 1680.45,3561 c 0,0 246.64,-184.98 332.96,-73.99 86.33,110.99 -258.97,382.28 -419.28,332.95 -160.31,-49.32 -234.3,-320.62 -234.3,-320.62 l 160.32,-49.33 c 0,0 -37.01,172.65 49.32,172.65 86.32,0 61.65,-110.99 61.65,-110.99 l 49.33,49.33"
         style="fill:#000000;fill-opacity:1;fill-rule:nonzero;stroke:none"
         id="path254" /><path
         d="m 1828.04,3413.01 c -0.3,-21.14 -0.6,-42.27 -0.9,-63.4 1.61,2.11 3.21,4.22 4.82,6.33 -16.77,-3.72 -34.45,-0.88 -49.3,7.69 -7.34,4.22 -13.96,-7.11 -6.64,-11.34 17.96,-10.35 39.21,-13.49 59.43,-9.01 2.82,0.63 4.77,3.55 4.81,6.33 0.31,21.13 0.61,42.26 0.9,63.4 0.12,8.45 -13.01,8.45 -13.12,0 v 0"
         style="fill:#000000;fill-opacity:1;fill-rule:nonzero;stroke:none"
         id="path256" /><path
         d="m 1706.49,3323.54 c -25.04,17.52 -45.32,40.98 -59.41,68.06 -1.94,3.74 -7.46,4.24 -10.3,1.33 -29.14,-29.93 -28.57,-82.21 1.49,-111.32 6.07,-5.88 15.36,3.39 9.29,9.28 -24.92,24.13 -25.75,67.85 -1.51,92.76 -3.43,0.44 -6.86,0.88 -10.3,1.33 15.15,-29.12 37.25,-53.97 64.12,-72.77 6.94,-4.85 13.5,6.52 6.62,11.33 v 0"
         style="fill:#000000;fill-opacity:1;fill-rule:nonzero;stroke:none"
         id="path258" /><path
         d="m 1549.66,3570.7 c 0.6,5.5 4.53,9.59 9.49,11.34 6.72,2.36 13.73,2.04 20.66,-0.06 6.53,-1.97 12.98,-5.93 16.61,-11.64 6.22,-9.79 5.95,-23.38 3.41,-34.54 -3.5,-15.35 -10.96,-29.4 -18.6,-43.03 3.99,-1.69 8,-3.38 11.99,-5.06 9.42,31.06 -13.88,64.81 -45.46,68.96 -3.52,0.46 -6.56,-3.35 -6.56,-6.56 0,-3.93 3.03,-6.1 6.56,-6.57 23.44,-3.07 39.5,-30.28 32.81,-52.34 -2.15,-7.12 8.35,-11.56 11.99,-5.06 8.16,14.57 16.18,29.78 19.93,46.17 3.26,14.26 3.41,31.02 -4.32,43.98 -10.02,16.78 -34.18,24.87 -52.51,18.41 -10.98,-3.88 -17.85,-12.45 -19.13,-24 -0.39,-3.53 3.29,-6.57 6.56,-6.57 3.88,0 6.18,3.03 6.57,6.57 v 0"
         style="fill:#000000;fill-opacity:1;fill-rule:nonzero;stroke:none"
         id="path260" /><path
         d="m 2326.22,578.77 c 129.36,2.699 258.79,-2.629 387.48,-16.008 8.39,-0.871 8.33,12.25 0,13.117 -128.69,13.383 -258.12,18.711 -387.48,16.019 -8.44,-0.179 -8.47,-13.296 0,-13.128 v 0"
         style="fill:#000000;fill-opacity:1;fill-rule:nonzero;stroke:none"
         id="path262" /><path
         d="m 2802.67,286.949 c -95.63,0 -107.91,-74.047 -163.44,-46.23 -13.33,6.703 -56.78,8.531 -116.34,7.672 l -89.49,234.121 h 326.3 l 42.97,-195.563"
         style="fill:#ffa79b;fill-opacity:1;fill-rule:nonzero;stroke:none"
         id="path264" /><path
         d="m 2759.7,482.512 -425.67,-1.352 -271.34,971.13 H 888.145 c -193.938,0 -355.938,147.62 -373.872,340.68 L 496.625,1982.5 H 2063.17 c 215.52,0 401.59,-150.58 446.38,-361.31 l 247.46,-1126.401 2.69,-12.277"
         style="fill:#687ccd;fill-opacity:1;fill-rule:nonzero;stroke:none"
         id="path266" /><path
         d="M 3121.29,65 H 2593 l -70.11,183.391 c 59.56,0.859 103.01,-0.969 116.34,-7.672 55.53,-27.817 67.81,46.23 163.44,46.23 L 3134.72,122.07 C 3163.2,107.871 3153.13,65 3121.29,65"
         style="fill:#4541fc;fill-opacity:1;fill-rule:nonzero;stroke:none"
         id="path268" /><path
         d="m 883.602,1958.28 c 19.023,-63.07 71.769,-109.03 130.928,-134.33 74.03,-31.65 156.61,-33.11 235.7,-38.16 173.81,-11.09 347.27,-27.68 520.03,-49.72 87.58,-11.17 174.97,-23.78 262.14,-37.77 42,-6.74 84.53,-12.52 126.13,-21.42 18.95,-4.06 36.72,-10.88 47.67,-27.84 10.68,-16.56 14.98,-37.08 20.59,-55.72 50.88,-169.06 101.74,-338.12 152.62,-507.18 51.09,-169.769 102.17,-339.531 153.26,-509.288 6.27,-20.872 12.55,-41.743 18.83,-62.622 2.43,-8.058 15.1,-4.628 12.66,3.5 -51.08,169.75 -102.17,339.52 -153.25,509.27 -50.87,169.07 -101.75,338.13 -152.62,507.19 -6.49,21.57 -12.98,43.14 -19.47,64.71 -5.14,17.08 -9.48,34.95 -17.86,50.83 -17.84,33.77 -53.18,39.03 -87.51,44.97 -86.17,14.89 -172.56,28.41 -259.15,40.56 -171.63,24.08 -344.02,42.83 -516.82,56.11 -43.55,3.35 -87.12,6.35 -130.72,9.01 -41.8,2.55 -83.79,4.85 -125.09,12.2 -70.58,12.57 -143.01,42.54 -184.26,104.31 -9.265,13.89 -16.328,28.9 -21.152,44.88 -2.43,8.07 -15.106,4.63 -12.656,-3.49 v 0"
         style="fill:#000000;fill-opacity:1;fill-rule:nonzero;stroke:none"
         id="path270" /><path
         d="m 2077.75,1572.51 c 0,-33.91 0,-67.82 0,-101.74 0,-8.44 13.13,-8.45 13.13,0 0,33.92 0,67.83 0,101.74 0,8.45 -13.13,8.46 -13.13,0 v 0"
         style="fill:#000000;fill-opacity:1;fill-rule:nonzero;stroke:none"
         id="path272" /><path
         d="m 2127.64,1469.04 c 6.17,15.41 12.33,30.82 18.5,46.24 1.31,3.29 -1.44,7.2 -4.59,8.06 -3.74,1.04 -6.75,-1.28 -8.06,-4.58 -6.18,-15.41 -12.34,-30.83 -18.51,-46.24 -1.31,-3.29 1.45,-7.2 4.59,-8.07 3.74,-1.03 6.75,1.28 8.07,4.59 v 0"
         style="fill:#000000;fill-opacity:1;fill-rule:nonzero;stroke:none"
         id="path274" /><path
         d="m 496.625,1982.5 13.223,-142 656.722,142 z"
         style="fill:#000000;fill-opacity:1;fill-rule:nonzero;stroke:none"
         id="path276" /><path
         d="M 661.113,2907.88 496.609,1982.54 H 1655.79 l -109.88,1076.87 c -8.39,82.2 -57.43,154.74 -130.6,193.15 l -101.9,53.5 c -162.51,85.31 -361.828,53.2 -489.32,-78.84 v -0.01 C 739.238,3139.33 682.5,3028.16 661.113,2907.88"
         style="fill:#ffc75d;fill-opacity:1;fill-rule:nonzero;stroke:none"
         id="path278" /><path
         d="m 1214.93,2543.64 c 0,0 40.44,-218.17 281.33,-260.87 49.69,-2.87 94.03,-4.64 129.47,-5.7 l -79.82,782.34 c -4.62,45.26 -21.62,87.55 -48.13,122.86 -112.1,59.56 -289.31,95.81 -409.48,-161.87 0,0 -24.41,-288.91 21.06,-500.23 l 105.57,23.47"
         style="fill:#000000;fill-opacity:1;fill-rule:nonzero;stroke:none"
         id="path280" /><path
         d="m 1105.66,2715.57 c -25.98,-190.27 -56.37,-379.94 -91.24,-568.79 -9.96,-53.95 -20.279,-107.84 -30.955,-161.66 -1.641,-8.25 11.008,-11.78 12.656,-3.49 37.359,188.37 70.349,377.6 98.859,567.51 8.14,54.26 15.92,108.58 23.34,162.94 1.13,8.26 -11.51,11.83 -12.66,3.49 v 0"
         style="fill:#000000;fill-opacity:1;fill-rule:nonzero;stroke:none"
         id="path282" /><path
         d="m 1088.3,3020.4 49.56,-433.61 530.26,98.66 -107.33,400.05 c -18.05,67.29 -63.4,123.96 -125.07,156.34 l -13.66,7.18 c -162.69,85.41 -354.62,-46.06 -333.76,-228.62"
         style="fill:#ffc75d;fill-opacity:1;fill-rule:nonzero;stroke:none"
         id="path284" /><path
         d="m 2679.33,2492.25 c 0,0 -49.33,65.77 -74,102.76 -48.8,73.2 -82.21,49.33 -135.64,20.56 -53.44,-28.78 -184.98,-16.44 -184.98,-16.44 l -616.59,86.32 -406.94,-67.83 v 0 c 20.45,-167.03 172.14,-286.06 339.25,-266.21 l 684.28,112.07 c 0,0 98.65,-12.33 147.97,-8.22 49.33,4.11 61.66,36.99 94.55,65.76 32.89,28.78 28.78,74 32.89,37 4.11,-37 36.99,-65.77 57.55,-69.88 20.54,-4.11 53.43,-16.44 61.66,4.11"
         style="fill:#ffa79b;fill-opacity:1;fill-rule:nonzero;stroke:none"
         id="path286" /><path
         d="m 1346.25,3271.96 c -101.8,25.78 -209.41,-33.45 -257,-124.34 -10.98,-20.97 -18.54,-43.8 -19.61,-67.56 -0.38,-8.44 12.74,-8.42 13.12,0 2.42,53.81 39.82,103.19 80.27,135.77 50.47,40.64 116.13,59.58 179.73,43.47 8.2,-2.07 11.68,10.59 3.49,12.66 v 0"
         style="fill:#000000;fill-opacity:1;fill-rule:nonzero;stroke:none"
         id="path288" /><path
         d="m 1176.88,2641.04 c 146.58,37.66 295.8,64.48 446.33,80.04 8.32,0.87 8.41,14 0,13.13 -151.7,-15.69 -302.11,-42.56 -449.82,-80.52 -8.18,-2.1 -4.71,-14.76 3.49,-12.65 v 0"
         style="fill:#000000;fill-opacity:1;fill-rule:nonzero;stroke:none"
         id="path290" /><path
         d="m 410.285,65 h 779.785 c 281.18,0 484.1,269.27 406.61,539.559 l -225.23,785.671 c -10.53,36.75 -44.13,62.06 -82.35,62.06 H 961.707 c -35.32,0 -67.031,21.69 -79.832,54.61 l -211.484,543.67 c -31.7,81.48 28.406,169.35 115.839,169.35 h 632.18"
         style="fill:none;stroke:#000000;stroke-width:70;stroke-linecap:round;stroke-linejoin:miter;stroke-miterlimit:10;stroke-dasharray:none;stroke-opacity:1"
         id="path292" /><path
         d="M 1742.11,1452.29 H 903.113 c -282.285,0 -519.843,235.43 -552.656,547.68 L 225.313,3191.05"
         style="fill:none;stroke:#d44945;stroke-width:150;stroke-linecap:round;stroke-linejoin:miter;stroke-miterlimit:10;stroke-dasharray:none;stroke-opacity:1"
         id="path294" /><path
         d="m 2075.07,65 h 679.89 c 318.41,0 548.19,388.07 460.45,777.629 L 2866.05,2303.17 c -11.92,52.95 -49.97,89.44 -93.25,89.44"
         style="fill:none;stroke:#000000;stroke-width:70;stroke-linecap:round;stroke-linejoin:miter;stroke-miterlimit:10;stroke-dasharray:none;stroke-opacity:1"
         id="path296" /><path
         d="M 1995.94,2360.72 H 3161.29"
         style="fill:none;stroke:#d44945;stroke-width:150;stroke-linecap:round;stroke-linejoin:miter;stroke-miterlimit:10;stroke-dasharray:none;stroke-opacity:1"
         id="path298" /><path
         d="m 6526.82,4091.26 c 0,0 -3.24,68.11 -24.67,110.99 -41.11,82.21 -90.43,90.43 -90.43,90.43 -32.88,0 -152.09,32.88 -152.09,32.88 0,0 -4.11,-49.32 41.1,-78.1 45.22,-28.77 78.11,-4.11 78.11,-4.11 0,0 -24.67,-41.1 -16.45,-94.54 8.22,-53.44 41.11,-49.32 41.11,-49.32 l 4.11,-131.54 h 69.88 l 826.22,-431.61 61.66,332.95 -838.55,221.97"
         style="fill:#e89087;fill-opacity:1;fill-rule:nonzero;stroke:none"
         id="path300" /><path
         d="m 7568.31,4140.59 h 135.45 c 249.58,0 446.07,-212.91 426.1,-461.69 L 8096.02,2451.15 H 7081.74 l 317,1551.02 c 16.46,80.56 87.34,138.42 169.57,138.42"
         style="fill:#d44945;fill-opacity:1;fill-rule:nonzero;stroke:none"
         id="path302" /><path
         d="m 7433.98,4076.43 c -17.09,-21.05 -29.52,-46.23 -35.24,-74.26 l -153.23,-749.75 358.3,499.24 c 120.88,136 7.26,346.74 -169.83,324.77"
         style="fill:#000000;fill-opacity:1;fill-rule:nonzero;stroke:none"
         id="path304" /><path
         d="m 7466.94,3536.27 c 6.34,-275.99 -1.44,-552.28 -23.51,-827.47 -6.23,-77.8 -13.64,-155.5 -22.12,-233.08 -0.92,-8.39 12.21,-8.32 13.12,0 30.02,274.42 46.01,550.36 47.66,826.43 0.46,78.04 -0.24,156.09 -2.02,234.12 -0.2,8.43 -13.32,8.46 -13.13,0 v 0"
         style="fill:#000000;fill-opacity:1;fill-rule:nonzero;stroke:none"
         id="path306" /><path
         d="m 7439.36,4646.19 -50.78,-245.44 c -11.98,-57.89 32.23,-112.18 91.35,-112.18 h 45.75 l -12.33,-172.64 258.96,-24.67 -61.66,604.26 -271.29,-49.33"
         style="fill:#ffa79b;fill-opacity:1;fill-rule:nonzero;stroke:none"
         id="path308" /><path
         d="m 7365.37,4831.17 c 123.32,110.98 234.3,-37 234.3,-37 0,0 155.08,20.67 221.97,-61.66 160.31,-197.31 -110.99,-431.61 -110.99,-431.61 l -110.98,86.32 c 0,0 123.32,37 86.33,147.98 -37.01,110.99 -123.32,-24.66 -123.32,-24.66 0,0 -49.33,160.31 -123.32,135.65 -73.99,-24.66 -201.33,70.37 -73.99,184.98"
         style="fill:#000000;fill-opacity:1;fill-rule:nonzero;stroke:none"
         id="path310" /><path
         d="m 7429.42,4547.36 c 1.12,-25.44 -15.88,-50.26 -40.31,-57.87 -8.04,-2.5 -4.61,-15.18 3.49,-12.66 29.81,9.28 51.32,39.21 49.95,70.53 -0.36,8.41 -13.49,8.46 -13.13,0 v 0"
         style="fill:#000000;fill-opacity:1;fill-rule:nonzero;stroke:none"
         id="path312" /><path
         d="m 7414.71,4393.18 c 25.68,-2.88 51.54,1.61 75.02,12.27 -3.22,1.31 -6.43,2.61 -9.64,3.92 7.4,-19.67 -0.73,-43.23 -19.13,-53.66 -7.36,-4.16 -0.75,-15.51 6.62,-11.33 23.13,13.1 34.57,43.46 25.16,68.48 -1.59,4.25 -5.53,5.79 -9.64,3.92 -21.38,-9.71 -45.11,-13.09 -68.39,-10.48 -3.54,0.4 -6.57,-3.3 -6.57,-6.56 0,-3.88 3.02,-6.17 6.57,-6.56 v 0"
         style="fill:#000000;fill-opacity:1;fill-rule:nonzero;stroke:none"
         id="path314" /><path
         d="m 7651.54,3791.52 -569.8,-563.48 -223.39,318.61 548.16,543.52 c 32.55,32.27 76.53,50.38 122.37,50.38 v 0 c 185.2,0 267.2,-233.16 122.66,-349.03"
         style="fill:#d44945;fill-opacity:1;fill-rule:nonzero;stroke:none"
         id="path316" /><path
         d="m 7524.91,4079.3 c 91.45,-39.39 140.41,-151.96 106.52,-245.66 -2.87,-7.96 9.81,-11.39 12.66,-3.5 35.68,98.66 -16.13,218.95 -112.56,260.5 -7.67,3.3 -14.36,-8 -6.62,-11.34 v 0"
         style="fill:#000000;fill-opacity:1;fill-rule:nonzero;stroke:none"
         id="path318" /><path
         d="m 6943.05,3585.15 c 36.46,-96.01 93.55,-183.14 167.28,-254.66 6.07,-5.89 15.35,3.38 9.28,9.28 -72.04,69.89 -128.26,155.01 -163.91,248.87 -2.97,7.82 -15.66,4.43 -12.65,-3.49 v 0"
         style="fill:#000000;fill-opacity:1;fill-rule:nonzero;stroke:none"
         id="path320" /><path
         d="m 6858.35,3546.65 -60.24,-59.65 -579.59,209.65 c 0,0 8.22,94.54 -49.32,119.2 -57.55,24.67 -127.43,49.33 -156.21,78.1 -28.77,28.78 -28.77,-61.65 4.11,-69.87 32.89,-8.23 61.66,-24.67 61.66,-24.67 0,0 -82.21,-32.88 -123.31,-16.44 -41.11,16.44 -90.44,57.55 -123.32,57.55 -32.88,0 -90.43,-12.33 -74,-20.56 16.45,-8.21 65.78,-24.66 82.22,-45.21 7.67,-9.59 22.48,-15.59 36.11,-19.28 3.65,-0.98 3.01,-6.31 -0.76,-6.36 -23.43,-0.28 -55.32,0.39 -76.45,5.09 -37,8.22 -65.77,8.22 -78.11,-8.23 -12.33,-16.44 45.22,-28.77 45.22,-28.77 0,0 12.33,-28.77 28.78,-45.21 16.43,-16.45 94.54,-32.89 123.31,-49.33 28.78,-16.45 184.98,-37 184.98,-37 l 648.25,-336.13 c 78.75,-40.83 173.87,-33.34 245.25,19.33 l 36.84,27.17 -175.42,250.62"
         style="fill:#ffa79b;fill-opacity:1;fill-rule:nonzero;stroke:none"
         id="path322" /><path
         d="m 5883.77,3743.38 c 10.95,-1.47 21.89,-2.95 32.84,-4.42 1.84,-0.25 3.39,-0.31 5.06,0.66 1.36,0.8 2.66,2.36 3.02,3.92 0.7,3.08 -0.95,7.59 -4.59,8.07 -10.95,1.48 -21.9,2.95 -32.84,4.42 -1.83,0.25 -3.39,0.32 -5.05,-0.66 -1.37,-0.79 -2.67,-2.35 -3.02,-3.92 -0.7,-3.08 0.94,-7.58 4.58,-8.07 v 0"
         style="fill:#000000;fill-opacity:1;fill-rule:nonzero;stroke:none"
         id="path324" /><path
         d="m 5783.87,3703.86 c 34.28,-16.84 71.71,-26.02 109.91,-26.78 8.45,-0.17 8.45,12.96 0,13.13 -35.81,0.71 -71.12,9.19 -103.28,24.98 -7.56,3.71 -14.22,-7.6 -6.63,-11.33 v 0"
         style="fill:#000000;fill-opacity:1;fill-rule:nonzero;stroke:none"
         id="path326" /><path
         d="m 6465.12,219.129 c 123.34,-15.438 58.6,-61.668 160.36,-43.16 101.77,18.523 101.77,18.523 101.77,18.523 l 7.38,0.77 L 6711.81,65 h -540.99 c -23.89,0 -29.87,33.1797 -7.5,41.531 l 301.8,112.598"
         style="fill:#000000;fill-opacity:1;fill-rule:nonzero;stroke:none"
         id="path328" /><path
         d="m 8438.24,65 h -520.98 c -23.47,0 -29.89,32.2813 -8.2,41.25 l 257.84,106.652 c 110.97,18.508 117.21,-67.812 160.37,-30.793 17.65,15.161 36.25,32.332 52.17,47.289 L 8438.24,65"
         style="fill:#000000;fill-opacity:1;fill-rule:nonzero;stroke:none"
         id="path330" /><path
         d="m 8189.16,761.711 h -333.12 l -215.26,380.009 c -51.64,91.16 -86.01,191.09 -101.38,294.74 l -73.86,498.32 -519.42,-531.79 -112.31,-641.279 h -332.15 l 39.74,590.709 c 6.61,98.23 34.94,193.75 82.94,279.69 l 457.4,819.02 h 949.54 c 0,0 24.27,-184.8 18.49,-305.19 -5.76,-120.39 -67.79,-804.62 -67.79,-804.62 l 207.18,-579.609"
         style="fill:#4541fc;fill-opacity:1;fill-rule:nonzero;stroke:none"
         id="path332" /><path
         d="m 6788.44,502.75 -53.81,-307.488 -7.38,-0.77 c 0,0 0,0 -101.77,-18.523 -101.76,-18.508 -37.02,27.722 -160.36,43.16 l 19.08,283.621 h 304.24"
         style="fill:#ffc75d;fill-opacity:1;fill-rule:nonzero;stroke:none"
         id="path334" /><path
         d="m 8379.44,229.398 c -15.92,-14.957 -34.52,-32.128 -52.17,-47.289 -43.16,-37.019 -49.4,49.301 -160.37,30.793 L 8002.69,502.75 h 279.02 l 97.73,-273.352"
         style="fill:#ffc75d;fill-opacity:1;fill-rule:nonzero;stroke:none"
         id="path336" /><path
         d="M 6833.81,761.711 6788.44,502.75 H 6484.2 l 17.46,258.961 h 332.15"
         style="fill:#ffa79b;fill-opacity:1;fill-rule:nonzero;stroke:none"
         id="path338" /><path
         d="m 8281.71,502.75 h -279.02 l -146.65,258.961 h 333.12 l 92.55,-258.961"
         style="fill:#ffa79b;fill-opacity:1;fill-rule:nonzero;stroke:none"
         id="path340" /><path
         d="m 7372.17,2424.16 c -137.28,-197.23 -274.54,-394.47 -411.82,-591.71 -34.11,-49.01 -68.21,-98.01 -102.32,-147.03 -32.67,-46.92 -67,-93.11 -97.18,-141.7 -28.67,-46.13 -47.49,-94.67 -54.95,-148.59 -7.68,-55.45 -8.3,-111.98 -11.09,-167.83 -6.71,-134.63 -13.41,-269.261 -20.13,-403.89 -0.42,-8.441 12.7,-8.418 13.12,0 5.92,118.711 11.84,237.41 17.76,356.12 2.86,57.31 4.71,114.77 8.95,172 4.14,55.78 15.05,108.85 41.84,158.42 26.62,49.23 61.13,94.31 93.04,140.16 34.11,49.01 68.22,98.02 102.33,147.03 67.39,96.83 134.77,193.65 202.17,290.47 76.53,109.98 153.07,219.95 229.62,329.93 4.83,6.95 -6.55,13.51 -11.34,6.62 v 0"
         style="fill:#000000;fill-opacity:1;fill-rule:nonzero;stroke:none"
         id="path342" /><path
         d="m 7283.44,2431.04 c -23.25,-43.05 -35.44,-91.27 -35.34,-140.2 0.02,-8.45 13.15,-8.46 13.13,0 -0.1,46.62 11.39,92.54 33.54,133.57 4.01,7.44 -7.32,14.07 -11.33,6.63 v 0"
         style="fill:#000000;fill-opacity:1;fill-rule:nonzero;stroke:none"
         id="path344" /><path
         d="m 7479.04,1956.44 c 44.47,51.28 88.07,103.48 133.5,153.9 9.77,10.85 20.52,19.94 35.6,21.24 12.42,1.07 24.83,-2.13 36.79,-5.03 22.05,-5.35 44.24,-10.81 65.83,-0.88 7.66,3.52 1,14.84 -6.63,11.33 -23.83,-10.96 -51.19,2.51 -75.21,6.36 -25.39,4.06 -45.71,-2.29 -63.36,-21.21 -47.02,-50.36 -90.66,-104.37 -135.79,-156.43 -5.51,-6.35 3.74,-15.68 9.27,-9.28 v 0"
         style="fill:#000000;fill-opacity:1;fill-rule:nonzero;stroke:none"
         id="path346" /><path
         d="m 7596.86,2093.15 c -17.77,-178.65 -8.23,-359.62 26.78,-535.67 35,-175.97 95.51,-346.95 179.29,-505.63 47.16,-89.33 101.79,-174.6 163.27,-254.741 5.07,-6.609 16.48,-0.078 11.34,6.621 -108.94,141.989 -196.21,300.25 -258.91,467.84 -62.47,166.98 -100.99,342.97 -113.21,520.86 -6.88,100.16 -5.37,200.82 4.57,300.72 0.83,8.4 -12.3,8.34 -13.13,0 v 0"
         style="fill:#000000;fill-opacity:1;fill-rule:nonzero;stroke:none"
         id="path348" /><path
         d="m 6551.47,890.789 c 102.77,0 205.53,0 308.3,0 8.44,0 8.46,13.133 0,13.133 -102.77,0 -205.53,0 -308.3,0 -8.44,0 -8.45,-13.133 0,-13.133 v 0"
         style="fill:#000000;fill-opacity:1;fill-rule:nonzero;stroke:none"
         id="path350" /><path
         d="m 7809.36,889.84 c 102.7,5.379 205.4,10.762 308.09,16.14 8.41,0.442 8.46,13.571 0,13.122 -102.69,-5.383 -205.39,-10.762 -308.09,-16.141 -8.4,-0.449 -8.45,-13.57 0,-13.121 v 0"
         style="fill:#000000;fill-opacity:1;fill-rule:nonzero;stroke:none"
         id="path352" /><path
         d="m 7537.99,2321.64 c 73.91,5.12 147.84,10.23 221.76,15.35 8.38,0.58 8.44,13.71 0,13.13 -73.92,-5.12 -147.85,-10.24 -221.76,-15.36 -8.38,-0.58 -8.45,-13.71 0,-13.12 v 0"
         style="fill:#000000;fill-opacity:1;fill-rule:nonzero;stroke:none"
         id="path354" /><path
         d="m 7944.96,2321.27 c 24.66,0 49.33,0 73.98,0 8.45,0 8.47,13.12 0,13.12 -24.65,0 -49.32,0 -73.98,0 -8.45,0 -8.46,-13.12 0,-13.12 v 0"
         style="fill:#000000;fill-opacity:1;fill-rule:nonzero;stroke:none"
         id="path356" /><path
         d="m 7402.46,2451.13 638.77,-91.25 c -4.93,52.99 -9.95,91.25 -9.95,91.25 h -628.82"
         style="fill:#000000;fill-opacity:1;fill-rule:nonzero;stroke:none"
         id="path358" /><path
         d="m 5276.51,3713.09 h 987.91 c 150.97,0 273.35,122.39 273.35,273.35 v 0 c 0,150.97 -122.38,273.35 -273.35,273.35 h -987.91 c -150.96,0 -273.35,-122.38 -273.35,-273.35 v 0 c 0,-150.96 122.39,-273.35 273.35,-273.35"
         style="fill:#4541fc;fill-opacity:1;fill-rule:nonzero;stroke:none"
         id="path360" /><path
         d="m 5063,3972.06 c -7.94,0 -14.39,6.44 -14.39,14.38 0,3.01 0.05,6.01 0.17,9 0.33,7.93 7.1,14.04 14.96,13.79 7.93,-0.32 14.11,-7.01 13.8,-14.95 -0.11,-2.61 -0.16,-5.21 -0.16,-7.84 0,-7.94 -6.44,-14.38 -14.38,-14.38"
         style="fill:#ffffff;fill-opacity:1;fill-rule:nonzero;stroke:none"
         id="path362" /><path
         d="m 5070.13,4027.83 c -1.21,0 -2.43,0.15 -3.65,0.47 -7.69,2 -12.29,9.86 -10.28,17.55 26.92,103.15 120.27,175.18 226.99,175.18 7.95,0 14.4,-6.44 14.4,-14.39 0,-7.95 -6.45,-14.39 -14.4,-14.39 -93.63,0 -175.53,-63.18 -199.16,-153.67 -1.68,-6.46 -7.52,-10.75 -13.9,-10.75"
         style="fill:#ffffff;fill-opacity:1;fill-rule:nonzero;stroke:none"
         id="path364" /><path
         d="m 5293.83,3856.96 h 953.28 c 71.51,0 129.48,57.97 129.48,129.48 v 0 c 0,71.51 -57.97,129.49 -129.48,129.49 h -953.28 c -71.51,0 -129.48,-57.98 -129.48,-129.49 v 0 c 0,-71.51 57.97,-129.48 129.48,-129.48"
         style="fill:#69b4e8;fill-opacity:1;fill-rule:nonzero;stroke:none"
         id="path366" /><path
         d="m 7826.12,7237.54 c 0,-101.23 -82.06,-183.29 -183.29,-183.29 -101.23,0 -183.29,82.06 -183.29,183.29 0,101.22 82.06,183.28 183.29,183.28 101.23,0 183.29,-82.06 183.29,-183.28 z"
         style="fill:none;stroke:#dce4f7;stroke-width:40;stroke-linecap:round;stroke-linejoin:round;stroke-miterlimit:10;stroke-dasharray:none;stroke-opacity:1"
         id="path368" /><path
         d="m 3616.53,6717.91 c 0,-101.22 -82.06,-183.28 -183.29,-183.28 -101.23,0 -183.29,82.06 -183.29,183.28 0,101.23 82.06,183.29 183.29,183.29 101.23,0 183.29,-82.06 183.29,-183.29 z"
         style="fill:none;stroke:#dce4f7;stroke-width:40;stroke-linecap:round;stroke-linejoin:round;stroke-miterlimit:10;stroke-dasharray:none;stroke-opacity:1"
         id="path370" /><path
         d="m 8081.13,6711.57 c 0,-74.81 -60.65,-135.47 -135.48,-135.47 -74.81,0 -135.47,60.66 -135.47,135.47 0,74.82 60.66,135.48 135.47,135.48 74.83,0 135.48,-60.66 135.48,-135.48 z"
         style="fill:none;stroke:#dce4f7;stroke-width:40;stroke-linecap:round;stroke-linejoin:round;stroke-miterlimit:10;stroke-dasharray:none;stroke-opacity:1"
         id="path372" /><path
         d="m 2480.85,6995.2 c 0,-74.82 -60.66,-135.47 -135.47,-135.47 -74.82,0 -135.48,60.65 -135.48,135.47 0,74.82 60.66,135.48 135.48,135.48 74.81,0 135.47,-60.66 135.47,-135.48 z"
         style="fill:none;stroke:#dce4f7;stroke-width:40;stroke-linecap:round;stroke-linejoin:round;stroke-miterlimit:10;stroke-dasharray:none;stroke-opacity:1"
         id="path374" /><path
         d="m 606.434,5342.76 c 0,-74.83 -60.653,-135.48 -135.477,-135.48 -74.82,0 -135.473,60.65 -135.473,135.48 0,74.82 60.653,135.47 135.473,135.47 74.824,0 135.477,-60.65 135.477,-135.47 z"
         style="fill:none;stroke:#dce4f7;stroke-width:40;stroke-linecap:round;stroke-linejoin:round;stroke-miterlimit:10;stroke-dasharray:none;stroke-opacity:1"
         id="path376" /><path
         d="m 3024.28,2858.1 c -462.86,0.26 -837.86,375.68 -837.61,838.54"
         style="fill:none;stroke:#687ccd;stroke-width:30;stroke-linecap:butt;stroke-linejoin:miter;stroke-miterlimit:10;stroke-dasharray:none;stroke-opacity:1"
         id="path378" /><path
         d="m 680.938,6609.22 c 53.593,-24.33 107.187,-48.65 160.781,-72.97 11.883,-5.39 27.461,-3.8 34.207,8.97 5.781,10.96 3.742,28.44 -8.973,34.21 -53.594,24.32 -107.18,48.64 -160.773,72.96 -11.883,5.4 -27.461,3.81 -34.207,-8.96 -5.793,-10.96 -3.743,-28.44 8.965,-34.21 v 0"
         style="fill:#dce4f7;fill-opacity:1;fill-rule:nonzero;stroke:none"
         id="path380" /><path
         d="m 825.691,6849.71 c 37.11,-36.89 74.211,-73.77 111.321,-110.66 9.285,-9.23 26.199,-9.97 35.351,0 9.141,9.96 9.91,25.5 0,35.35 -37.101,36.89 -74.211,73.77 -111.308,110.66 -9.289,9.23 -26.203,9.97 -35.364,0 -9.128,-9.95 -9.902,-25.51 0,-35.35 v 0"
         style="fill:#dce4f7;fill-opacity:1;fill-rule:nonzero;stroke:none"
         id="path382" /><path
         d="m 1040.94,7012.9 c 16.7,-32.75 33.4,-65.5 50.1,-98.25 5.95,-11.68 23.3,-16 34.2,-8.97 11.92,7.68 15.35,21.71 8.98,34.2 -16.71,32.76 -33.41,65.51 -50.11,98.26 -5.96,11.67 -23.31,15.99 -34.21,8.97 -11.91,-7.68 -15.33,-21.72 -8.96,-34.21 v 0"
         style="fill:#dce4f7;fill-opacity:1;fill-rule:nonzero;stroke:none"
         id="path384" /><path
         d="m 7999.96,5562.09 c 57.69,20.13 115.38,40.27 173.08,60.41 12.74,4.45 21.21,17.11 17.46,30.75 -3.4,12.37 -17.95,21.93 -30.75,17.46 -57.7,-20.14 -115.4,-40.27 -173.09,-60.4 -12.73,-4.45 -21.21,-17.11 -17.46,-30.76 3.41,-12.37 17.95,-21.93 30.76,-17.46 v 0"
         style="fill:#dce4f7;fill-opacity:1;fill-rule:nonzero;stroke:none"
         id="path386" /><path
         d="m 8018.98,5360.62 c 61.58,5.19 123.15,10.38 184.71,15.56 13.46,1.14 25,10.68 25,25 0,12.65 -11.46,26.15 -25,25 -61.56,-5.18 -123.13,-10.37 -184.71,-15.56 -13.44,-1.13 -25,-10.68 -25,-25 0,-12.64 11.48,-26.13 25,-25 v 0"
         style="fill:#dce4f7;fill-opacity:1;fill-rule:nonzero;stroke:none"
         id="path388" /><path
         d="m 8007.84,5083.58 c 62.77,-35 125.54,-70 188.31,-105 28.14,-15.69 53.38,27.48 25.24,43.18 -62.77,35 -125.54,69.99 -188.31,104.99 -28.14,15.69 -53.38,-27.48 -25.24,-43.17 v 0"
         style="fill:#dce4f7;fill-opacity:1;fill-rule:nonzero;stroke:none"
         id="path390" /><path
         d="m 262.445,4092.52 c 61.551,-5.35 123.102,-10.7 184.653,-16.05 13.468,-1.17 25,12.33 25,25 0,14.5 -11.493,23.83 -25,25 -61.551,5.35 -123.102,10.7 -184.653,16.05 -13.465,1.17 -25,-12.33 -25,-25 0,-14.49 11.496,-23.82 25,-25 v 0"
         style="fill:#dce4f7;fill-opacity:1;fill-rule:nonzero;stroke:none"
         id="path392" /><path
         d="m 280.371,3835.94 c 49.813,14.79 99.633,29.58 149.453,44.37 12.524,3.71 21.672,17.72 17.461,30.75 -4.105,12.68 -17.324,21.44 -30.758,17.46 -49.812,-14.79 -99.632,-29.58 -149.453,-44.37 -12.523,-3.71 -21.676,-17.72 -17.461,-30.75 4.106,-12.68 17.325,-21.45 30.758,-17.46 v 0"
         style="fill:#dce4f7;fill-opacity:1;fill-rule:nonzero;stroke:none"
         id="path394" /><path
         d="m 379.086,3592.11 c 5.012,4.17 10.055,8.3 15.16,12.35 1.277,1.01 2.559,2.02 3.84,3.03 1.07,0.84 2.824,2.2 0.73,0.58 2.579,2 5.18,3.96 7.789,5.91 10.762,8.06 21.731,15.84 32.891,23.33 21.992,14.76 44.738,28.35 68.09,40.83 11.551,6.17 16.094,23.16 8.973,34.21 -7.571,11.73 -21.852,15.57 -34.207,8.97 -49.368,-26.39 -95.625,-58.03 -138.622,-93.85 -10.089,-8.4 -9.332,-26.79 0,-35.36 10.727,-9.85 24.594,-8.96 35.356,0 v 0"
         style="fill:#dce4f7;fill-opacity:1;fill-rule:nonzero;stroke:none"
         id="path396" /><path
         d="m 8006.62,4129.35 c 3.92,-0.05 7.78,-0.36 11.69,-0.59 5.84,-0.35 -4.22,0.87 1.06,-0.1 2.23,-0.41 4.46,-0.79 6.67,-1.26 7.63,-1.64 14.94,-4.09 22.22,-6.85 1.71,-0.68 1.21,-0.47 -1.49,0.63 0.89,-0.39 1.76,-0.79 2.64,-1.21 2.06,-0.96 4.1,-1.97 6.1,-3.03 3.44,-1.82 6.81,-3.78 10.1,-5.86 3.31,-2.1 6.48,-4.35 9.63,-6.65 -3.42,2.5 -0.71,0.54 1.07,-0.94 1.5,-1.25 2.98,-2.53 4.42,-3.83 5.82,-5.25 11.12,-10.95 16.12,-16.97 4.17,-5.01 -2.91,4.21 0.84,-1.11 1.13,-1.6 2.27,-3.17 3.35,-4.79 2.16,-3.23 4.19,-6.55 6.09,-9.95 1.89,-3.4 3.55,-6.9 5.23,-10.4 2.48,-5.16 -1.25,3.77 0.47,-1.19 0.64,-1.83 1.36,-3.63 1.97,-5.47 1.33,-3.99 2.47,-8.04 3.41,-12.15 0.43,-1.89 0.82,-3.8 1.16,-5.71 1.22,-6.69 -0.24,3.21 0.37,-2.05 1.49,-12.95 10.43,-25.65 25,-25 12.26,0.55 26.6,11.09 25,25 -4.66,40.45 -23.24,77.74 -53.65,105.14 -30.11,27.14 -68.68,43.89 -109.47,44.34 -13.08,0.15 -25.6,-11.6 -25,-25 0.62,-13.67 10.99,-24.85 25,-25 v 0"
         style="fill:#dce4f7;fill-opacity:1;fill-rule:nonzero;stroke:none"
         id="path398" /><path
         d="m 8171.03,4156.84 c 4.84,-4.59 9.53,-9.33 14,-14.27 2.36,-2.62 4.68,-5.28 6.93,-7.99 0.89,-1.07 5.8,-7.31 3.41,-4.15 8.28,-10.94 15.67,-22.56 22.11,-34.68 3.13,-5.89 5.97,-11.91 8.7,-17.99 -1.71,3.79 1.43,-3.59 1.93,-4.92 1.26,-3.29 2.46,-6.61 3.58,-9.96 4.38,-13.02 7.65,-26.36 9.9,-39.9 2.17,-12.94 18.83,-21.32 30.76,-17.46 13.98,4.52 19.78,16.89 17.46,30.75 -9.88,59.09 -40.03,114.71 -83.42,155.93 -9.49,9.01 -26.06,10.12 -35.36,0 -8.96,-9.77 -10.12,-25.74 0,-35.36 v 0"
         style="fill:#dce4f7;fill-opacity:1;fill-rule:nonzero;stroke:none"
         id="path400" /><path
         d="m 3064.21,3567.11 c -21.21,-84.38 13.13,-174.63 83.15,-225.4 10.94,-7.93 27.86,-1.87 34.2,8.97 7.39,12.63 2,26.26 -8.96,34.21 -51.33,37.21 -75.33,108.66 -60.18,168.93 7.84,31.22 -40.37,44.53 -48.21,13.29 v 0"
         style="fill:#dce4f7;fill-opacity:1;fill-rule:nonzero;stroke:none"
         id="path402" /><path
         d="m 2925.31,3474.71 c -7.02,-65.72 41.28,-131.94 104.94,-147.61 12.69,-3.12 27.71,4.05 30.76,17.46 2.94,12.91 -3.87,27.41 -17.46,30.75 -3.37,0.83 -6.69,1.77 -9.97,2.92 -1.35,0.46 -2.68,1.02 -4.03,1.5 -1.74,0.7 -1.07,0.41 2,-0.86 -0.79,0.36 -1.57,0.71 -2.34,1.09 -5.71,2.7 -11.17,5.91 -16.33,9.55 -2.77,1.96 -2.13,1.03 0.22,-0.31 -1.44,0.82 -2.74,2.21 -4,3.29 -2.62,2.26 -5.14,4.63 -7.56,7.1 -2.01,2.06 -3.95,4.2 -5.82,6.4 -0.74,0.88 -1.47,1.78 -2.2,2.68 0.6,-0.78 1.19,-1.55 1.78,-2.33 -0.55,1.33 -2.21,3.03 -3.04,4.21 -3.61,5.23 -6.81,10.74 -9.57,16.45 -0.66,1.37 -3.64,5.91 -0.31,0.34 -0.71,1.2 -1.08,2.73 -1.57,4.03 -1.09,2.96 -2.08,5.97 -2.94,9.01 -0.93,3.32 -1.71,6.68 -2.33,10.06 -0.17,0.88 -1.11,5.88 -0.36,1.78 0.75,-4.06 -0.05,0.89 -0.14,1.81 -0.6,6.9 -0.46,13.8 0.27,20.68 1.4,13.05 -12.49,25.56 -25,25 -14.73,-0.66 -23.5,-11.02 -25,-25 v 0"
         style="fill:#dce4f7;fill-opacity:1;fill-rule:nonzero;stroke:none"
         id="path404" /><path
         d="m 2470.09,1924.95 c 56.85,-39.99 93.02,-108.4 95.83,-176.78 0.55,-13.5 11.09,-25 25,-25 13.11,0 25.55,11.44 25,25 -3.61,87.96 -48.73,169.41 -120.6,219.96 -11.04,7.77 -27.79,1.99 -34.2,-8.97 -7.31,-12.5 -2.11,-26.41 8.97,-34.21 v 0"
         style="fill:#dce4f7;fill-opacity:1;fill-rule:nonzero;stroke:none"
         id="path406" /><path
         d="m 2607.82,1920.19 c 37.28,-53.86 61.71,-113.9 72.76,-178.48 2.27,-13.32 18.66,-20.79 30.75,-17.46 14.09,3.87 19.74,17.39 17.46,30.75 -11.64,68.07 -38.49,133.65 -77.79,190.42 -7.68,11.09 -21.92,16.16 -34.21,8.97 -10.98,-6.42 -16.69,-23.05 -8.97,-34.2 v 0"
         style="fill:#dce4f7;fill-opacity:1;fill-rule:nonzero;stroke:none"
         id="path408" /><path
         d="m 2678.94,4954.86 c 0.42,742.35 602.55,1343.81 1344.91,1343.4"
         style="fill:none;stroke:#687ccd;stroke-width:30;stroke-linecap:butt;stroke-linejoin:miter;stroke-miterlimit:10;stroke-dasharray:none;stroke-opacity:1"
         id="path410" /></g></g></svg>
